<?xml version="1.0" encoding="us-ascii" standalone="no"?><svg xmlns="http://www.w3.org/2000/svg" xmlns:xlink="http://www.w3.org/1999/xlink" contentStyleType="text/css" height="1348px" preserveAspectRatio="none" style="width:2455px;height:1348px;background:#FFFFFF;" version="1.1" viewBox="0 0 2455 1348" width="2455px" zoomAndPan="magnify"><defs/><g><rect fill="none" height="21.1992" style="stroke:none;stroke-width:1.0;" width="2422.375" x="15" y="12.2969"/><rect fill="#98FB98" height="1324.0586" style="stroke:#98FB98;stroke-width:1.0;" width="430" x="15" y="12.2969"/><ellipse cx="389" cy="48.4961" fill="#222222" rx="10" ry="10" style="stroke:#222222;stroke-width:1.0;"/><rect fill="#F1F1F1" height="34.1328" rx="12.5" ry="12.5" style="stroke:#181818;stroke-width:0.5;" width="92" x="343" y="78.4961"/><text fill="#000000" font-family="sans-serif" font-size="12" lengthAdjust="spacing" textLength="72" x="353" y="100.0977">&#21019;&#24314;&#30563;&#23519;&#20219;&#21153;</text><rect fill="#F1F1F1" height="34.1328" rx="12.5" ry="12.5" style="stroke:#181818;stroke-width:0.5;" width="104" x="337" y="132.6289"/><text fill="#000000" font-family="sans-serif" font-size="12" lengthAdjust="spacing" textLength="84" x="347" y="154.2305">&#36873;&#25321;&#32452;&#38271;&#24182;&#27966;&#21457;</text><rect fill="#F1F1F1" height="34.1328" rx="12.5" ry="12.5" style="stroke:#181818;stroke-width:0.5;" width="68" x="114.5" y="995.0898"/><text fill="#000000" font-family="sans-serif" font-size="12" lengthAdjust="spacing" textLength="48" x="124.5" y="1016.6914">&#22788;&#29702;&#30003;&#35785;</text><polygon fill="#F1F1F1" points="124,1064.2227,173,1064.2227,185,1076.2227,173,1088.2227,124,1088.2227,112,1076.2227,124,1064.2227" style="stroke:#181818;stroke-width:0.5;"/><text fill="#000000" font-family="sans-serif" font-size="11" lengthAdjust="spacing" textLength="49" x="124" y="1080.3799">&#30003;&#35785;&#26377;&#25928;?</text><text fill="#000000" font-family="sans-serif" font-size="11" lengthAdjust="spacing" textLength="11" x="101" y="1073.9023">&#26159;</text><text fill="#000000" font-family="sans-serif" font-size="11" lengthAdjust="spacing" textLength="11" x="185" y="1073.9023">&#21542;</text><rect fill="#F1F1F1" height="34.1328" rx="12.5" ry="12.5" style="stroke:#181818;stroke-width:0.5;" width="92" x="21" y="1098.2227"/><text fill="#000000" font-family="sans-serif" font-size="12" lengthAdjust="spacing" textLength="72" x="31" y="1119.8242">&#25209;&#22797;&#30003;&#35785;&#25104;&#21151;</text><rect fill="#F1F1F1" height="34.1328" rx="12.5" ry="12.5" style="stroke:#181818;stroke-width:0.5;" width="194" x="133" y="1098.2227"/><text fill="#000000" font-family="sans-serif" font-size="12" lengthAdjust="spacing" textLength="174" x="143" y="1119.8242">&#22635;&#20889;&#39539;&#22238;&#29702;&#30001;&#65292;&#26631;&#35760;&#38382;&#39064;'&#24453;&#25972;&#25913;'</text><polygon fill="#F1F1F1" points="148.5,1138.3555,160.5,1150.3555,148.5,1162.3555,136.5,1150.3555,148.5,1138.3555" style="stroke:#181818;stroke-width:0.5;"/><line style="stroke:#000000;stroke-width:1.5;" x1="15" x2="15" y1="12.2969" y2="1336.3555"/><rect fill="#FFC0CB" height="1324.0586" style="stroke:#FFC0CB;stroke-width:1.0;" width="839.25" x="445" y="12.2969"/><rect fill="#F1F1F1" height="34.1328" rx="12.5" ry="12.5" style="stroke:#181818;stroke-width:0.5;" width="152" x="812.25" y="186.7617"/><text fill="#000000" font-family="sans-serif" font-size="12" lengthAdjust="spacing" textLength="132" x="822.25" y="208.3633">&#32452;&#38271;&#36873;&#25321;&#30563;&#26597;&#32452;&#38271;&#24182;&#27966;&#21457;</text><rect fill="#F1F1F1" height="34.1328" rx="12.5" ry="12.5" style="stroke:#181818;stroke-width:0.5;" width="68" x="518.5" y="822.8242"/><text fill="#000000" font-family="sans-serif" font-size="12" lengthAdjust="spacing" textLength="48" x="528.5" y="844.4258">&#22788;&#29702;&#30003;&#35785;</text><polygon fill="#F1F1F1" points="528,891.957,577,891.957,589,903.957,577,915.957,528,915.957,516,903.957,528,891.957" style="stroke:#181818;stroke-width:0.5;"/><text fill="#000000" font-family="sans-serif" font-size="11" lengthAdjust="spacing" textLength="49" x="528" y="908.1143">&#30003;&#35785;&#26377;&#25928;?</text><text fill="#000000" font-family="sans-serif" font-size="11" lengthAdjust="spacing" textLength="11" x="505" y="901.6367">&#26159;</text><text fill="#000000" font-family="sans-serif" font-size="11" lengthAdjust="spacing" textLength="11" x="589" y="901.6367">&#21542;</text><rect fill="#F1F1F1" height="34.1328" rx="12.5" ry="12.5" style="stroke:#181818;stroke-width:0.5;" width="44" x="451" y="935.957"/><text fill="#000000" font-family="sans-serif" font-size="12" lengthAdjust="spacing" textLength="24" x="461" y="957.5586">&#19978;&#25253;</text><rect fill="#F1F1F1" height="34.1328" rx="12.5" ry="12.5" style="stroke:#181818;stroke-width:0.5;" width="194" x="608.25" y="935.957"/><text fill="#000000" font-family="sans-serif" font-size="12" lengthAdjust="spacing" textLength="174" x="618.25" y="957.5586">&#22635;&#20889;&#39539;&#22238;&#29702;&#30001;&#65292;&#26631;&#35760;&#38382;&#39064;'&#24453;&#25972;&#25913;'</text><polygon fill="#F1F1F1" points="552.5,1172.3555,564.5,1184.3555,552.5,1196.3555,540.5,1184.3555,552.5,1172.3555" style="stroke:#181818;stroke-width:0.5;"/><rect fill="#F1F1F1" height="34.1328" rx="12.5" ry="12.5" style="stroke:#181818;stroke-width:0.5;" width="68" x="1067.75" y="930.957"/><text fill="#000000" font-family="sans-serif" font-size="12" lengthAdjust="spacing" textLength="48" x="1077.75" y="952.5586">&#22788;&#29702;&#25972;&#25913;</text><polygon fill="#F1F1F1" points="1077.25,990.0898,1126.25,990.0898,1138.25,1002.0898,1126.25,1014.0898,1077.25,1014.0898,1065.25,1002.0898,1077.25,990.0898" style="stroke:#181818;stroke-width:0.5;"/><text fill="#000000" font-family="sans-serif" font-size="11" lengthAdjust="spacing" textLength="49" x="1077.25" y="1006.2471">&#25972;&#25913;&#26377;&#25928;?</text><text fill="#000000" font-family="sans-serif" font-size="11" lengthAdjust="spacing" textLength="11" x="1054.25" y="999.7695">&#26159;</text><text fill="#000000" font-family="sans-serif" font-size="11" lengthAdjust="spacing" textLength="11" x="1138.25" y="999.7695">&#21542;</text><rect fill="#F1F1F1" height="34.1328" rx="12.5" ry="12.5" style="stroke:#181818;stroke-width:0.5;" width="92" x="974.25" y="1024.0898"/><text fill="#000000" font-family="sans-serif" font-size="12" lengthAdjust="spacing" textLength="72" x="984.25" y="1045.6914">&#25209;&#22797;&#25972;&#25913;&#23436;&#25104;</text><rect fill="#F1F1F1" height="34.1328" rx="12.5" ry="12.5" style="stroke:#181818;stroke-width:0.5;" width="194" x="1086.25" y="1024.0898"/><text fill="#000000" font-family="sans-serif" font-size="12" lengthAdjust="spacing" textLength="174" x="1096.25" y="1045.6914">&#22635;&#20889;&#39539;&#22238;&#29702;&#30001;&#65292;&#26631;&#35760;&#38382;&#39064;'&#24453;&#25972;&#25913;'</text><polygon fill="#F1F1F1" points="1101.75,1064.2227,1113.75,1076.2227,1101.75,1088.2227,1089.75,1076.2227,1101.75,1064.2227" style="stroke:#181818;stroke-width:0.5;"/><line style="stroke:#000000;stroke-width:1.5;" x1="445" x2="445" y1="12.2969" y2="1336.3555"/><rect fill="#F1F1F1" height="34.1328" rx="12.5" ry="12.5" style="stroke:#181818;stroke-width:0.5;" width="92" x="1538.125" y="240.8945"/><text fill="#000000" font-family="sans-serif" font-size="12" lengthAdjust="spacing" textLength="72" x="1548.125" y="262.4961">&#36873;&#25321;&#30563;&#26597;&#32452;&#21592;</text><rect fill="#555555" height="6" rx="2.5" ry="2.5" style="stroke:#555555;stroke-width:1.0;" width="334" x="1416.125" y="295.0273"/><rect fill="#F1F1F1" height="34.1328" rx="12.5" ry="12.5" style="stroke:#181818;stroke-width:0.5;" width="140" x="1430.125" y="321.0273"/><text fill="#000000" font-family="sans-serif" font-size="12" lengthAdjust="spacing" textLength="120" x="1440.125" y="342.6289">&#65288;&#32452;&#38271;&#65289;&#31649;&#29702;&#36829;&#31456;&#21015;&#34920;</text><rect fill="#F1F1F1" height="34.1328" rx="12.5" ry="12.5" style="stroke:#181818;stroke-width:0.5;" width="140" x="1598.125" y="321.0273"/><text fill="#000000" font-family="sans-serif" font-size="12" lengthAdjust="spacing" textLength="120" x="1608.125" y="342.6289">&#65288;&#32452;&#21592;&#65289;&#32534;&#36753;&#36829;&#31456;&#38382;&#39064;</text><polygon fill="#F1F1F1" points="1584.125,365.1602,1596.125,377.1602,1584.125,389.1602,1572.125,377.1602,1584.125,365.1602" style="stroke:#181818;stroke-width:0.5;"/><rect fill="#F1F1F1" height="34.1328" rx="12.5" ry="12.5" style="stroke:#181818;stroke-width:0.5;" width="80" x="1544.125" y="409.1602"/><text fill="#000000" font-family="sans-serif" font-size="12" lengthAdjust="spacing" textLength="60" x="1554.125" y="430.7617">&#29983;&#25104;&#36829;&#31456;&#21333;</text><rect fill="#F1F1F1" height="34.1328" rx="12.5" ry="12.5" style="stroke:#181818;stroke-width:0.5;" width="68" x="1357.75" y="650.5586"/><text fill="#000000" font-family="sans-serif" font-size="12" lengthAdjust="spacing" textLength="48" x="1367.75" y="672.1602">&#22788;&#29702;&#30003;&#35785;</text><polygon fill="#F1F1F1" points="1367.25,719.6914,1416.25,719.6914,1428.25,731.6914,1416.25,743.6914,1367.25,743.6914,1355.25,731.6914,1367.25,719.6914" style="stroke:#181818;stroke-width:0.5;"/><text fill="#000000" font-family="sans-serif" font-size="11" lengthAdjust="spacing" textLength="49" x="1367.25" y="735.8486">&#30003;&#35785;&#26377;&#25928;?</text><text fill="#000000" font-family="sans-serif" font-size="11" lengthAdjust="spacing" textLength="11" x="1344.25" y="729.3711">&#26159;</text><text fill="#000000" font-family="sans-serif" font-size="11" lengthAdjust="spacing" textLength="11" x="1428.25" y="729.3711">&#21542;</text><rect fill="#F1F1F1" height="34.1328" rx="12.5" ry="12.5" style="stroke:#181818;stroke-width:0.5;" width="44" x="1290.25" y="763.6914"/><text fill="#000000" font-family="sans-serif" font-size="12" lengthAdjust="spacing" textLength="24" x="1300.25" y="785.293">&#19978;&#25253;</text><rect fill="#F1F1F1" height="34.1328" rx="12.5" ry="12.5" style="stroke:#181818;stroke-width:0.5;" width="194" x="1483.125" y="763.6914"/><text fill="#000000" font-family="sans-serif" font-size="12" lengthAdjust="spacing" textLength="174" x="1493.125" y="785.293">&#22635;&#20889;&#39539;&#22238;&#29702;&#30001;&#65292;&#26631;&#35760;&#38382;&#39064;'&#24453;&#25972;&#25913;'</text><polygon fill="#F1F1F1" points="1391.75,1206.3555,1403.75,1218.3555,1391.75,1230.3555,1379.75,1218.3555,1391.75,1206.3555" style="stroke:#181818;stroke-width:0.5;"/><rect fill="#F1F1F1" height="34.1328" rx="12.5" ry="12.5" style="stroke:#181818;stroke-width:0.5;" width="68" x="1827.625" y="758.6914"/><text fill="#000000" font-family="sans-serif" font-size="12" lengthAdjust="spacing" textLength="48" x="1837.625" y="780.293">&#22788;&#29702;&#25972;&#25913;</text><polygon fill="#F1F1F1" points="1837.125,817.8242,1886.125,817.8242,1898.125,829.8242,1886.125,841.8242,1837.125,841.8242,1825.125,829.8242,1837.125,817.8242" style="stroke:#181818;stroke-width:0.5;"/><text fill="#000000" font-family="sans-serif" font-size="11" lengthAdjust="spacing" textLength="49" x="1837.125" y="833.9814">&#25972;&#25913;&#26377;&#25928;?</text><text fill="#000000" font-family="sans-serif" font-size="11" lengthAdjust="spacing" textLength="11" x="1814.125" y="827.5039">&#26159;</text><text fill="#000000" font-family="sans-serif" font-size="11" lengthAdjust="spacing" textLength="11" x="1898.125" y="827.5039">&#21542;</text><rect fill="#F1F1F1" height="34.1328" rx="12.5" ry="12.5" style="stroke:#181818;stroke-width:0.5;" width="44" x="1760.125" y="861.8242"/><text fill="#000000" font-family="sans-serif" font-size="12" lengthAdjust="spacing" textLength="24" x="1770.125" y="883.4258">&#19978;&#25253;</text><rect fill="#F1F1F1" height="34.1328" rx="12.5" ry="12.5" style="stroke:#181818;stroke-width:0.5;" width="194" x="1917.375" y="861.8242"/><text fill="#000000" font-family="sans-serif" font-size="12" lengthAdjust="spacing" textLength="174" x="1927.375" y="883.4258">&#22635;&#20889;&#39539;&#22238;&#29702;&#30001;&#65292;&#26631;&#35760;&#38382;&#39064;'&#24453;&#25972;&#25913;'</text><polygon fill="#F1F1F1" points="1861.625,1098.2227,1873.625,1110.2227,1861.625,1122.2227,1849.625,1110.2227,1861.625,1098.2227" style="stroke:#181818;stroke-width:0.5;"/><line style="stroke:#181818;stroke-width:1.5;" x1="1391.75" x2="1861.625" y1="1250.3555" y2="1250.3555"/><polygon fill="#F1F1F1" points="1482.125,1270.3555,1686.125,1270.3555,1698.125,1282.3555,1686.125,1294.3555,1482.125,1294.3555,1470.125,1282.3555,1482.125,1270.3555" style="stroke:#181818;stroke-width:0.5;"/><text fill="#000000" font-family="sans-serif" font-size="11" lengthAdjust="spacing" textLength="204" x="1482.125" y="1286.5127">&#24182;&#38750;&#25152;&#26377;&#38382;&#39064;&#30342;&#24050;'&#30003;&#35785;&#25104;&#21151;'&#25110;'&#25972;&#25913;&#23436;&#25104;'?</text><ellipse cx="1584.125" cy="1325.3555" fill="none" rx="11" ry="11" style="stroke:#222222;stroke-width:1.0;"/><ellipse cx="1584.125" cy="1325.3555" fill="#222222" rx="6" ry="6" style="stroke:#111111;stroke-width:1.0;"/><line style="stroke:#000000;stroke-width:1.5;" x1="1284.25" x2="1284.25" y1="12.2969" y2="1336.3555"/><rect fill="#FFD700" height="1324.0586" style="stroke:#FFD700;stroke-width:1.0;" width="320" x="2115.375" y="12.2969"/><line style="stroke:#181818;stroke-width:1.5;" x1="2185.375" x2="2367.375" y1="507.293" y2="507.293"/><rect fill="#F1F1F1" height="34.1328" rx="12.5" ry="12.5" style="stroke:#181818;stroke-width:0.5;" width="128" x="2121.375" y="527.293"/><text fill="#000000" font-family="sans-serif" font-size="12" lengthAdjust="spacing" textLength="108" x="2131.375" y="548.8945">&#36873;&#25321;&#38656;&#35201;&#30003;&#35785;&#30340;&#38382;&#39064;</text><rect fill="#F1F1F1" height="34.1328" rx="12.5" ry="12.5" style="stroke:#181818;stroke-width:0.5;" width="68" x="2151.375" y="581.4258"/><text fill="#000000" font-family="sans-serif" font-size="12" lengthAdjust="spacing" textLength="48" x="2161.375" y="603.0273">&#21457;&#36215;&#30003;&#35785;</text><rect fill="#F1F1F1" height="34.1328" rx="12.5" ry="12.5" style="stroke:#181818;stroke-width:0.5;" width="128" x="2303.375" y="620.4258"/><text fill="#000000" font-family="sans-serif" font-size="12" lengthAdjust="spacing" textLength="108" x="2313.375" y="642.0273">&#36873;&#25321;&#38656;&#35201;&#25972;&#25913;&#30340;&#38382;&#39064;</text><rect fill="#F1F1F1" height="34.1328" rx="12.5" ry="12.5" style="stroke:#181818;stroke-width:0.5;" width="68" x="2333.375" y="689.5586"/><text fill="#000000" font-family="sans-serif" font-size="12" lengthAdjust="spacing" textLength="48" x="2343.375" y="711.1602">&#25552;&#20132;&#25972;&#25913;</text><polygon fill="#F1F1F1" points="2281.375,463.293,2293.375,475.293,2281.375,487.293,2269.375,475.293,2281.375,463.293" style="stroke:#181818;stroke-width:0.5;"/><line style="stroke:#000000;stroke-width:1.5;" x1="2115.375" x2="2115.375" y1="12.2969" y2="1336.3555"/><line style="stroke:#000000;stroke-width:1.5;" x1="2435.375" x2="2435.375" y1="12.2969" y2="1336.3555"/><line style="stroke:#181818;stroke-width:1.0;" x1="389" x2="389" y1="58.4961" y2="78.4961"/><polygon fill="#181818" points="385,68.4961,389,78.4961,393,68.4961,389,72.4961" style="stroke:#181818;stroke-width:1.0;"/><line style="stroke:#181818;stroke-width:1.0;" x1="389" x2="389" y1="112.6289" y2="132.6289"/><polygon fill="#181818" points="385,122.6289,389,132.6289,393,122.6289,389,126.6289" style="stroke:#181818;stroke-width:1.0;"/><line style="stroke:#181818;stroke-width:1.0;" x1="112" x2="67" y1="1076.2227" y2="1076.2227"/><line style="stroke:#181818;stroke-width:1.0;" x1="67" x2="67" y1="1076.2227" y2="1098.2227"/><polygon fill="#181818" points="63,1088.2227,67,1098.2227,71,1088.2227,67,1092.2227" style="stroke:#181818;stroke-width:1.0;"/><line style="stroke:#181818;stroke-width:1.0;" x1="185" x2="230" y1="1076.2227" y2="1076.2227"/><line style="stroke:#181818;stroke-width:1.0;" x1="230" x2="230" y1="1076.2227" y2="1098.2227"/><polygon fill="#181818" points="226,1088.2227,230,1098.2227,234,1088.2227,230,1092.2227" style="stroke:#181818;stroke-width:1.0;"/><line style="stroke:#181818;stroke-width:1.0;" x1="67" x2="67" y1="1132.3555" y2="1150.3555"/><line style="stroke:#181818;stroke-width:1.0;" x1="67" x2="136.5" y1="1150.3555" y2="1150.3555"/><polygon fill="#181818" points="126.5,1146.3555,136.5,1150.3555,126.5,1154.3555,130.5,1150.3555" style="stroke:#181818;stroke-width:1.0;"/><line style="stroke:#181818;stroke-width:1.0;" x1="230" x2="230" y1="1132.3555" y2="1150.3555"/><line style="stroke:#181818;stroke-width:1.0;" x1="230" x2="160.5" y1="1150.3555" y2="1150.3555"/><polygon fill="#181818" points="170.5,1146.3555,160.5,1150.3555,170.5,1154.3555,166.5,1150.3555" style="stroke:#181818;stroke-width:1.0;"/><line style="stroke:#181818;stroke-width:1.0;" x1="148.5" x2="148.5" y1="1029.2227" y2="1064.2227"/><polygon fill="#181818" points="144.5,1054.2227,148.5,1064.2227,152.5,1054.2227,148.5,1058.2227" style="stroke:#181818;stroke-width:1.0;"/><line style="stroke:#181818;stroke-width:1.0;" x1="516" x2="473" y1="903.957" y2="903.957"/><line style="stroke:#181818;stroke-width:1.0;" x1="473" x2="473" y1="903.957" y2="935.957"/><polygon fill="#181818" points="469,925.957,473,935.957,477,925.957,473,929.957" style="stroke:#181818;stroke-width:1.0;"/><line style="stroke:#181818;stroke-width:1.0;" x1="589" x2="705.25" y1="903.957" y2="903.957"/><line style="stroke:#181818;stroke-width:1.0;" x1="705.25" x2="705.25" y1="903.957" y2="935.957"/><polygon fill="#181818" points="701.25,925.957,705.25,935.957,709.25,925.957,705.25,929.957" style="stroke:#181818;stroke-width:1.0;"/><line style="stroke:#181818;stroke-width:1.0;" x1="705.25" x2="705.25" y1="970.0898" y2="1184.3555"/><line style="stroke:#181818;stroke-width:1.0;" x1="705.25" x2="564.5" y1="1184.3555" y2="1184.3555"/><polygon fill="#181818" points="574.5,1180.3555,564.5,1184.3555,574.5,1188.3555,570.5,1184.3555" style="stroke:#181818;stroke-width:1.0;"/><line style="stroke:#181818;stroke-width:1.0;" x1="552.5" x2="552.5" y1="856.957" y2="891.957"/><polygon fill="#181818" points="548.5,881.957,552.5,891.957,556.5,881.957,552.5,885.957" style="stroke:#181818;stroke-width:1.0;"/><line style="stroke:#181818;stroke-width:1.0;" x1="1065.25" x2="1020.25" y1="1002.0898" y2="1002.0898"/><line style="stroke:#181818;stroke-width:1.0;" x1="1020.25" x2="1020.25" y1="1002.0898" y2="1024.0898"/><polygon fill="#181818" points="1016.25,1014.0898,1020.25,1024.0898,1024.25,1014.0898,1020.25,1018.0898" style="stroke:#181818;stroke-width:1.0;"/><line style="stroke:#181818;stroke-width:1.0;" x1="1138.25" x2="1183.25" y1="1002.0898" y2="1002.0898"/><line style="stroke:#181818;stroke-width:1.0;" x1="1183.25" x2="1183.25" y1="1002.0898" y2="1024.0898"/><polygon fill="#181818" points="1179.25,1014.0898,1183.25,1024.0898,1187.25,1014.0898,1183.25,1018.0898" style="stroke:#181818;stroke-width:1.0;"/><line style="stroke:#181818;stroke-width:1.0;" x1="1020.25" x2="1020.25" y1="1058.2227" y2="1076.2227"/><line style="stroke:#181818;stroke-width:1.0;" x1="1020.25" x2="1089.75" y1="1076.2227" y2="1076.2227"/><polygon fill="#181818" points="1079.75,1072.2227,1089.75,1076.2227,1079.75,1080.2227,1083.75,1076.2227" style="stroke:#181818;stroke-width:1.0;"/><line style="stroke:#181818;stroke-width:1.0;" x1="1183.25" x2="1183.25" y1="1058.2227" y2="1076.2227"/><line style="stroke:#181818;stroke-width:1.0;" x1="1183.25" x2="1113.75" y1="1076.2227" y2="1076.2227"/><polygon fill="#181818" points="1123.75,1072.2227,1113.75,1076.2227,1123.75,1080.2227,1119.75,1076.2227" style="stroke:#181818;stroke-width:1.0;"/><line style="stroke:#181818;stroke-width:1.0;" x1="1101.75" x2="1101.75" y1="965.0898" y2="990.0898"/><polygon fill="#181818" points="1097.75,980.0898,1101.75,990.0898,1105.75,980.0898,1101.75,984.0898" style="stroke:#181818;stroke-width:1.0;"/><line style="stroke:#181818;stroke-width:1.0;" x1="1500.125" x2="1500.125" y1="301.0273" y2="321.0273"/><polygon fill="#181818" points="1496.125,311.0273,1500.125,321.0273,1504.125,311.0273,1500.125,315.0273" style="stroke:#181818;stroke-width:1.0;"/><line style="stroke:#181818;stroke-width:1.0;" x1="1668.125" x2="1668.125" y1="301.0273" y2="321.0273"/><polygon fill="#181818" points="1664.125,311.0273,1668.125,321.0273,1672.125,311.0273,1668.125,315.0273" style="stroke:#181818;stroke-width:1.0;"/><line style="stroke:#181818;stroke-width:1.0;" x1="1500.125" x2="1500.125" y1="355.1602" y2="377.1602"/><line style="stroke:#181818;stroke-width:1.0;" x1="1500.125" x2="1572.125" y1="377.1602" y2="377.1602"/><polygon fill="#181818" points="1562.125,373.1602,1572.125,377.1602,1562.125,381.1602,1566.125,377.1602" style="stroke:#181818;stroke-width:1.0;"/><line style="stroke:#181818;stroke-width:1.0;" x1="1668.125" x2="1668.125" y1="355.1602" y2="377.1602"/><line style="stroke:#181818;stroke-width:1.0;" x1="1668.125" x2="1596.125" y1="377.1602" y2="377.1602"/><polygon fill="#181818" points="1606.125,373.1602,1596.125,377.1602,1606.125,381.1602,1602.125,377.1602" style="stroke:#181818;stroke-width:1.0;"/><line style="stroke:#181818;stroke-width:1.0;" x1="1584.125" x2="1584.125" y1="275.0273" y2="295.0273"/><polygon fill="#181818" points="1580.125,285.0273,1584.125,295.0273,1588.125,285.0273,1584.125,289.0273" style="stroke:#181818;stroke-width:1.0;"/><line style="stroke:#181818;stroke-width:1.0;" x1="1584.125" x2="1584.125" y1="389.1602" y2="409.1602"/><polygon fill="#181818" points="1580.125,399.1602,1584.125,409.1602,1588.125,399.1602,1584.125,403.1602" style="stroke:#181818;stroke-width:1.0;"/><line style="stroke:#181818;stroke-width:1.0;" x1="1355.25" x2="1312.25" y1="731.6914" y2="731.6914"/><line style="stroke:#181818;stroke-width:1.0;" x1="1312.25" x2="1312.25" y1="731.6914" y2="763.6914"/><polygon fill="#181818" points="1308.25,753.6914,1312.25,763.6914,1316.25,753.6914,1312.25,757.6914" style="stroke:#181818;stroke-width:1.0;"/><line style="stroke:#181818;stroke-width:1.0;" x1="1428.25" x2="1580.125" y1="731.6914" y2="731.6914"/><line style="stroke:#181818;stroke-width:1.0;" x1="1580.125" x2="1580.125" y1="731.6914" y2="763.6914"/><polygon fill="#181818" points="1576.125,753.6914,1580.125,763.6914,1584.125,753.6914,1580.125,757.6914" style="stroke:#181818;stroke-width:1.0;"/><line style="stroke:#181818;stroke-width:1.0;" x1="1580.125" x2="1580.125" y1="797.8242" y2="1218.3555"/><line style="stroke:#181818;stroke-width:1.0;" x1="1580.125" x2="1403.75" y1="1218.3555" y2="1218.3555"/><polygon fill="#181818" points="1413.75,1214.3555,1403.75,1218.3555,1413.75,1222.3555,1409.75,1218.3555" style="stroke:#181818;stroke-width:1.0;"/><line style="stroke:#181818;stroke-width:1.0;" x1="1391.75" x2="1391.75" y1="684.6914" y2="719.6914"/><polygon fill="#181818" points="1387.75,709.6914,1391.75,719.6914,1395.75,709.6914,1391.75,713.6914" style="stroke:#181818;stroke-width:1.0;"/><line style="stroke:#181818;stroke-width:1.0;" x1="1825.125" x2="1782.125" y1="829.8242" y2="829.8242"/><line style="stroke:#181818;stroke-width:1.0;" x1="1782.125" x2="1782.125" y1="829.8242" y2="861.8242"/><polygon fill="#181818" points="1778.125,851.8242,1782.125,861.8242,1786.125,851.8242,1782.125,855.8242" style="stroke:#181818;stroke-width:1.0;"/><line style="stroke:#181818;stroke-width:1.0;" x1="1898.125" x2="2014.375" y1="829.8242" y2="829.8242"/><line style="stroke:#181818;stroke-width:1.0;" x1="2014.375" x2="2014.375" y1="829.8242" y2="861.8242"/><polygon fill="#181818" points="2010.375,851.8242,2014.375,861.8242,2018.375,851.8242,2014.375,855.8242" style="stroke:#181818;stroke-width:1.0;"/><line style="stroke:#181818;stroke-width:1.0;" x1="2014.375" x2="2014.375" y1="895.957" y2="1110.2227"/><line style="stroke:#181818;stroke-width:1.0;" x1="2014.375" x2="1873.625" y1="1110.2227" y2="1110.2227"/><polygon fill="#181818" points="1883.625,1106.2227,1873.625,1110.2227,1883.625,1114.2227,1879.625,1110.2227" style="stroke:#181818;stroke-width:1.0;"/><line style="stroke:#181818;stroke-width:1.0;" x1="1861.625" x2="1861.625" y1="792.8242" y2="817.8242"/><polygon fill="#181818" points="1857.625,807.8242,1861.625,817.8242,1865.625,807.8242,1861.625,811.8242" style="stroke:#181818;stroke-width:1.0;"/><line style="stroke:#181818;stroke-width:1.0;" x1="1391.75" x2="1391.75" y1="1230.3555" y2="1250.3555"/><polygon fill="#181818" points="1387.75,1240.3555,1391.75,1250.3555,1395.75,1240.3555,1391.75,1244.3555" style="stroke:#181818;stroke-width:1.0;"/><line style="stroke:#181818;stroke-width:1.0;" x1="1861.625" x2="1861.625" y1="1122.2227" y2="1250.3555"/><polygon fill="#181818" points="1857.625,1240.3555,1861.625,1250.3555,1865.625,1240.3555,1861.625,1244.3555" style="stroke:#181818;stroke-width:1.0;"/><line style="stroke:#181818;stroke-width:1.0;" x1="1584.125" x2="1584.125" y1="1251.8555" y2="1270.3555"/><polygon fill="#181818" points="1580.125,1260.3555,1584.125,1270.3555,1588.125,1260.3555,1584.125,1264.3555" style="stroke:#181818;stroke-width:1.0;"/><line style="stroke:#181818;stroke-width:1.0;" x1="1584.125" x2="1584.125" y1="1294.3555" y2="1314.3555"/><polygon fill="#181818" points="1580.125,1304.3555,1584.125,1314.3555,1588.125,1304.3555,1584.125,1308.3555" style="stroke:#181818;stroke-width:1.0;"/><line style="stroke:#181818;stroke-width:1.0;" x1="2185.375" x2="2185.375" y1="561.4258" y2="581.4258"/><polygon fill="#181818" points="2181.375,571.4258,2185.375,581.4258,2189.375,571.4258,2185.375,575.4258" style="stroke:#181818;stroke-width:1.0;"/><line style="stroke:#181818;stroke-width:1.0;" x1="2367.375" x2="2367.375" y1="654.5586" y2="689.5586"/><polygon fill="#181818" points="2363.375,679.5586,2367.375,689.5586,2371.375,679.5586,2367.375,683.5586" style="stroke:#181818;stroke-width:1.0;"/><line style="stroke:#181818;stroke-width:1.0;" x1="2185.375" x2="2185.375" y1="508.793" y2="527.293"/><polygon fill="#181818" points="2181.375,517.293,2185.375,527.293,2189.375,517.293,2185.375,521.293" style="stroke:#181818;stroke-width:1.0;"/><line style="stroke:#181818;stroke-width:1.0;" x1="2367.375" x2="2367.375" y1="508.793" y2="620.4258"/><polygon fill="#181818" points="2363.375,610.4258,2367.375,620.4258,2371.375,610.4258,2367.375,614.4258" style="stroke:#181818;stroke-width:1.0;"/><line style="stroke:#181818;stroke-width:1.0;" x1="2281.375" x2="2281.375" y1="487.293" y2="507.293"/><polygon fill="#181818" points="2277.375,497.293,2281.375,507.293,2285.375,497.293,2281.375,501.293" style="stroke:#181818;stroke-width:1.0;"/><line style="stroke:#181818;stroke-width:1.0;" x1="389" x2="389" y1="166.7617" y2="171.7617"/><line style="stroke:#181818;stroke-width:1.0;" x1="389" x2="888.25" y1="171.7617" y2="171.7617"/><line style="stroke:#181818;stroke-width:1.0;" x1="888.25" x2="888.25" y1="171.7617" y2="186.7617"/><polygon fill="#181818" points="884.25,176.7617,888.25,186.7617,892.25,176.7617,888.25,180.7617" style="stroke:#181818;stroke-width:1.0;"/><line style="stroke:#181818;stroke-width:1.0;" x1="888.25" x2="888.25" y1="220.8945" y2="225.8945"/><line style="stroke:#181818;stroke-width:1.0;" x1="888.25" x2="1584.125" y1="225.8945" y2="225.8945"/><line style="stroke:#181818;stroke-width:1.0;" x1="1584.125" x2="1584.125" y1="225.8945" y2="240.8945"/><polygon fill="#181818" points="1580.125,230.8945,1584.125,240.8945,1588.125,230.8945,1584.125,234.8945" style="stroke:#181818;stroke-width:1.0;"/><line style="stroke:#181818;stroke-width:1.0;" x1="2185.375" x2="2185.375" y1="615.5586" y2="633.0586"/><line style="stroke:#181818;stroke-width:1.0;" x1="2185.375" x2="1391.75" y1="633.0586" y2="633.0586"/><line style="stroke:#181818;stroke-width:1.0;" x1="1391.75" x2="1391.75" y1="633.0586" y2="650.5586"/><polygon fill="#181818" points="1387.75,640.5586,1391.75,650.5586,1395.75,640.5586,1391.75,644.5586" style="stroke:#181818;stroke-width:1.0;"/><line style="stroke:#181818;stroke-width:1.0;" x1="1312.25" x2="1312.25" y1="797.8242" y2="805.3242"/><line style="stroke:#181818;stroke-width:1.0;" x1="1312.25" x2="552.5" y1="805.3242" y2="805.3242"/><line style="stroke:#181818;stroke-width:1.0;" x1="552.5" x2="552.5" y1="805.3242" y2="822.8242"/><polygon fill="#181818" points="548.5,812.8242,552.5,822.8242,556.5,812.8242,552.5,816.8242" style="stroke:#181818;stroke-width:1.0;"/><line style="stroke:#181818;stroke-width:1.0;" x1="473" x2="473" y1="970.0898" y2="977.5898"/><line style="stroke:#181818;stroke-width:1.0;" x1="473" x2="148.5" y1="977.5898" y2="977.5898"/><line style="stroke:#181818;stroke-width:1.0;" x1="148.5" x2="148.5" y1="977.5898" y2="995.0898"/><polygon fill="#181818" points="144.5,985.0898,148.5,995.0898,152.5,985.0898,148.5,989.0898" style="stroke:#181818;stroke-width:1.0;"/><line style="stroke:#181818;stroke-width:1.0;" x1="148.5" x2="148.5" y1="1162.3555" y2="1184.3555"/><line style="stroke:#181818;stroke-width:1.0;" x1="148.5" x2="540.5" y1="1184.3555" y2="1184.3555"/><polygon fill="#181818" points="530.5,1180.3555,540.5,1184.3555,530.5,1188.3555,534.5,1184.3555" style="stroke:#181818;stroke-width:1.0;"/><line style="stroke:#181818;stroke-width:1.0;" x1="552.5" x2="552.5" y1="1196.3555" y2="1218.3555"/><line style="stroke:#181818;stroke-width:1.0;" x1="552.5" x2="1379.75" y1="1218.3555" y2="1218.3555"/><polygon fill="#181818" points="1369.75,1214.3555,1379.75,1218.3555,1369.75,1222.3555,1373.75,1218.3555" style="stroke:#181818;stroke-width:1.0;"/><line style="stroke:#181818;stroke-width:1.0;" x1="2367.375" x2="2367.375" y1="723.6914" y2="741.1914"/><line style="stroke:#181818;stroke-width:1.0;" x1="2367.375" x2="1861.625" y1="741.1914" y2="741.1914"/><line style="stroke:#181818;stroke-width:1.0;" x1="1861.625" x2="1861.625" y1="741.1914" y2="758.6914"/><polygon fill="#181818" points="1857.625,748.6914,1861.625,758.6914,1865.625,748.6914,1861.625,752.6914" style="stroke:#181818;stroke-width:1.0;"/><line style="stroke:#181818;stroke-width:1.0;" x1="1782.125" x2="1782.125" y1="895.957" y2="913.457"/><line style="stroke:#181818;stroke-width:1.0;" x1="1782.125" x2="1101.75" y1="913.457" y2="913.457"/><line style="stroke:#181818;stroke-width:1.0;" x1="1101.75" x2="1101.75" y1="913.457" y2="930.957"/><polygon fill="#181818" points="1097.75,920.957,1101.75,930.957,1105.75,920.957,1101.75,924.957" style="stroke:#181818;stroke-width:1.0;"/><line style="stroke:#181818;stroke-width:1.0;" x1="1101.75" x2="1101.75" y1="1088.2227" y2="1110.2227"/><line style="stroke:#181818;stroke-width:1.0;" x1="1101.75" x2="1849.625" y1="1110.2227" y2="1110.2227"/><polygon fill="#181818" points="1839.625,1106.2227,1849.625,1110.2227,1839.625,1114.2227,1843.625,1110.2227" style="stroke:#181818;stroke-width:1.0;"/><line style="stroke:#181818;stroke-width:1.0;" x1="1698.125" x2="2160.4063" y1="1282.3555" y2="1282.3555"/><polygon fill="#181818" points="2156.4063,881.3242,2160.4063,871.3242,2164.4063,881.3242,2160.4063,877.3242" style="stroke:#181818;stroke-width:1.0;"/><line style="stroke:#181818;stroke-width:1.0;" x1="2160.4063" x2="2160.4063" y1="475.293" y2="1282.3555"/><line style="stroke:#181818;stroke-width:1.0;" x1="2160.4063" x2="2269.375" y1="475.293" y2="475.293"/><polygon fill="#181818" points="2259.375,471.293,2269.375,475.293,2259.375,479.293,2263.375,475.293" style="stroke:#181818;stroke-width:1.0;"/><line style="stroke:#181818;stroke-width:1.0;" x1="1584.125" x2="1584.125" y1="443.293" y2="448.293"/><line style="stroke:#181818;stroke-width:1.0;" x1="1584.125" x2="2281.375" y1="448.293" y2="448.293"/><line style="stroke:#181818;stroke-width:1.0;" x1="2281.375" x2="2281.375" y1="448.293" y2="463.293"/><polygon fill="#181818" points="2277.375,453.293,2281.375,463.293,2285.375,453.293,2281.375,457.293" style="stroke:#181818;stroke-width:1.0;"/><text fill="#000000" font-family="sans-serif" font-size="18" lengthAdjust="spacing" textLength="72" x="194" y="29.6992">&#30465;&#32423;&#19987;&#36131;</text><text fill="#000000" font-family="sans-serif" font-size="18" lengthAdjust="spacing" textLength="54" x="837.625" y="29.6992">&#25903;&#25745;&#32452;</text><text fill="#000000" font-family="sans-serif" font-size="18" lengthAdjust="spacing" textLength="54" x="1672.8125" y="29.6992">&#30563;&#26597;&#32452;</text><text fill="#000000" font-family="sans-serif" font-size="18" lengthAdjust="spacing" textLength="72" x="2239.375" y="29.6992">&#36131;&#20219;&#20154;&#21592;</text><!--SRC=[jPFBRjf058RtynIMiZ2yWbdaMImn42kkiOobRcP194ficYWcWIHD88H2Ree4RK8k64HUnZDZhtY5ZXbCZTERaEhLw5o-EMV-tsX3brMODo3K46tkKFV6UptoXrq4YgPic432rZaUkxJLnOEsDnxZQYS3fA1aayztT5mE6czuz4o6KtnGom2qeIlQDYBr0JciiIm24gzPrBUwf7trlciPHqjo5C6rqmp85Onj8B1FcaqitZwRsBJVeKx5VslH-qjidVYTMrufo7bPqUBr31BMJuxzQOtN1oVzu2iZGoqhV8167h91wsrYEGlSVYDS9bzGiuYz1LlRSrr6GS20EfHDKDHLnOo63Peb_tg7rX_zWKtFoX5ROilvJoyydjWIzyfizYYbv8GKFvEcJHhMPbemjw0cfCZf8CqNyLwhf7h5AB6tdITMIM7exxHLughgo_nxyB_3vm1YZt1lVr5iERZQ_ec1QX4AAUnS9tfmvnvNlWHtZ_ZyOdxxzzbaZrpk-lrl_5b5FFr46aDI7uancfPLSY31JRxKclpG8GmU1yU4N0FAX-KEMbWruR4LM_6-kAt8WUEvFHx_fQsYLAWLFwzhguWKAVzdManrNeZxUqpu3FYDukkfyH_423NcVpJ_lOMFMueQtZ1w3beNn2wnZNapFQlWbmSnRcgHMCTYV5znCytaDGlw3m00]--></g></svg>