<?xml version="1.0" encoding="us-ascii" standalone="no"?><svg xmlns="http://www.w3.org/2000/svg" xmlns:xlink="http://www.w3.org/1999/xlink" contentStyleType="text/css" height="190px" preserveAspectRatio="none" style="width:114px;height:190px;background:#FFFFFF;" version="1.1" viewBox="0 0 114 190" width="114px" zoomAndPan="magnify"><defs/><g><ellipse cx="57" cy="20" fill="#222222" rx="10" ry="10" style="stroke:#222222;stroke-width:1.0;"/><rect fill="#F1F1F1" height="33.9688" rx="12.5" ry="12.5" style="stroke:#181818;stroke-width:0.5;" width="92" x="11" y="50"/><text fill="#000000" font-family="sans-serif" font-size="12" lengthAdjust="spacing" textLength="72" x="21" y="71.1387">&#21019;&#24314;&#30563;&#23519;&#20219;&#21153;</text><rect fill="#F1F1F1" height="33.9688" rx="12.5" ry="12.5" style="stroke:#181818;stroke-width:0.5;" width="44" x="35" y="103.9688"/><text fill="#000000" font-family="sans-serif" font-size="12" lengthAdjust="spacing" textLength="24" x="45" y="125.1074">&#20998;&#37197;</text><ellipse cx="57" cy="168.9375" fill="none" rx="11" ry="11" style="stroke:#222222;stroke-width:1.0;"/><ellipse cx="57" cy="168.9375" fill="#222222" rx="6" ry="6" style="stroke:#111111;stroke-width:1.0;"/><line style="stroke:#181818;stroke-width:1.0;" x1="57" x2="57" y1="30" y2="50"/><polygon fill="#181818" points="53,40,57,50,61,40,57,44" style="stroke:#181818;stroke-width:1.0;"/><line style="stroke:#181818;stroke-width:1.0;" x1="57" x2="57" y1="83.9688" y2="103.9688"/><polygon fill="#181818" points="53,93.9688,57,103.9688,61,93.9688,57,97.9688" style="stroke:#181818;stroke-width:1.0;"/><line style="stroke:#181818;stroke-width:1.0;" x1="57" x2="57" y1="137.9375" y2="157.9375"/><polygon fill="#181818" points="53,147.9375,57,157.9375,61,147.9375,57,151.9375" style="stroke:#181818;stroke-width:1.0;"/><!--SRC=[Aov9B2hXidhQCVlfxbtFvov-kdx-azsxdtOjj0O9jhrixRNcAYx9Bm00]--></g></svg>