<?xml version="1.0" encoding="us-ascii" standalone="no"?><svg xmlns="http://www.w3.org/2000/svg" xmlns:xlink="http://www.w3.org/1999/xlink" contentStyleType="text/css" height="793px" preserveAspectRatio="none" style="width:547px;height:793px;background:#FFFFFF;" version="1.1" viewBox="0 0 547 793" width="547px" zoomAndPan="magnify"><defs/><g><!--class ????--><g id="elem_&#30563;&#23519;&#35745;&#21010;"><rect codeLine="3" fill="#F1F1F1" height="178.375" id="&#30563;&#23519;&#35745;&#21010;" rx="2.5" ry="2.5" style="stroke:#181818;stroke-width:0.5;" width="88" x="212" y="7"/><ellipse cx="227" cy="23" fill="#ADD1B2" rx="11" ry="11" style="stroke:#181818;stroke-width:1.0;"/><path d="M229.9688,28.6406 Q229.3906,28.9375 228.75,29.0781 Q228.1094,29.2344 227.4063,29.2344 Q224.9063,29.2344 223.5781,27.5938 Q222.2656,25.9375 222.2656,22.8125 Q222.2656,19.6875 223.5781,18.0313 Q224.9063,16.375 227.4063,16.375 Q228.1094,16.375 228.75,16.5313 Q229.4063,16.6875 229.9688,16.9844 L229.9688,19.7031 Q229.3438,19.125 228.75,18.8594 Q228.1563,18.5781 227.5313,18.5781 Q226.1875,18.5781 225.5,19.6563 Q224.8125,20.7188 224.8125,22.8125 Q224.8125,24.9063 225.5,25.9844 Q226.1875,27.0469 227.5313,27.0469 Q228.1563,27.0469 228.75,26.7813 Q229.3438,26.5 229.9688,25.9219 L229.9688,28.6406 Z " fill="#000000"/><text fill="#000000" font-family="sans-serif" font-size="14" lengthAdjust="spacing" textLength="56" x="241" y="27.8467">&#30563;&#23519;&#35745;&#21010;</text><line style="stroke:#181818;stroke-width:0.5;" x1="213" x2="299" y1="39" y2="39"/><text fill="#000000" font-family="sans-serif" font-size="14" lengthAdjust="spacing" textLength="56" x="218" y="55.9951">&#27966;&#21457;&#29366;&#24577;</text><text fill="#000000" font-family="sans-serif" font-size="14" lengthAdjust="spacing" textLength="56" x="218" y="72.292">&#24314;&#31649;&#21333;&#20301;</text><text fill="#000000" font-family="sans-serif" font-size="14" lengthAdjust="spacing" textLength="56" x="218" y="88.5889">&#39033;&#30446;&#21517;&#31216;</text><text fill="#000000" font-family="sans-serif" font-size="14" lengthAdjust="spacing" textLength="56" x="218" y="104.8857">&#39118;&#38505;&#20869;&#23481;</text><text fill="#000000" font-family="sans-serif" font-size="14" lengthAdjust="spacing" textLength="56" x="218" y="121.1826">&#39118;&#38505;&#31561;&#32423;</text><text fill="#000000" font-family="sans-serif" font-size="14" lengthAdjust="spacing" textLength="56" x="218" y="137.4795">&#30005;&#21387;&#31561;&#32423;</text><text fill="#000000" font-family="sans-serif" font-size="14" lengthAdjust="spacing" textLength="56" x="218" y="153.7764">&#24320;&#22987;&#26102;&#38388;</text><text fill="#000000" font-family="sans-serif" font-size="14" lengthAdjust="spacing" textLength="56" x="218" y="170.0732">&#32467;&#26463;&#26102;&#38388;</text><line style="stroke:#181818;stroke-width:0.5;" x1="213" x2="299" y1="177.375" y2="177.375"/></g><!--class ????--><g id="elem_&#30563;&#23519;&#20219;&#21153;"><rect codeLine="13" fill="#F1F1F1" height="129.4844" id="&#30563;&#23519;&#20219;&#21153;" rx="2.5" ry="2.5" style="stroke:#181818;stroke-width:0.5;" width="88" x="335" y="31.5"/><ellipse cx="350" cy="47.5" fill="#ADD1B2" rx="11" ry="11" style="stroke:#181818;stroke-width:1.0;"/><path d="M352.9688,53.1406 Q352.3906,53.4375 351.75,53.5781 Q351.1094,53.7344 350.4063,53.7344 Q347.9063,53.7344 346.5781,52.0938 Q345.2656,50.4375 345.2656,47.3125 Q345.2656,44.1875 346.5781,42.5313 Q347.9063,40.875 350.4063,40.875 Q351.1094,40.875 351.75,41.0313 Q352.4063,41.1875 352.9688,41.4844 L352.9688,44.2031 Q352.3438,43.625 351.75,43.3594 Q351.1563,43.0781 350.5313,43.0781 Q349.1875,43.0781 348.5,44.1563 Q347.8125,45.2188 347.8125,47.3125 Q347.8125,49.4063 348.5,50.4844 Q349.1875,51.5469 350.5313,51.5469 Q351.1563,51.5469 351.75,51.2813 Q352.3438,51 352.9688,50.4219 L352.9688,53.1406 Z " fill="#000000"/><text fill="#000000" font-family="sans-serif" font-size="14" lengthAdjust="spacing" textLength="56" x="364" y="52.3467">&#30563;&#23519;&#20219;&#21153;</text><line style="stroke:#181818;stroke-width:0.5;" x1="336" x2="422" y1="63.5" y2="63.5"/><text fill="#000000" font-family="sans-serif" font-size="14" lengthAdjust="spacing" textLength="56" x="341" y="80.4951">&#26045;&#24037;&#21333;&#20301;</text><text fill="#000000" font-family="sans-serif" font-size="14" lengthAdjust="spacing" textLength="56" x="341" y="96.792">&#30417;&#29702;&#21333;&#20301;</text><text fill="#000000" font-family="sans-serif" font-size="14" lengthAdjust="spacing" textLength="56" x="341" y="113.0889">&#25152;&#23646;&#37096;&#38376;</text><text fill="#000000" font-family="sans-serif" font-size="14" lengthAdjust="spacing" textLength="56" x="341" y="129.3857">&#30563;&#26597;&#31867;&#22411;</text><text fill="#000000" font-family="sans-serif" font-size="14" lengthAdjust="spacing" textLength="70" x="341" y="145.6826">&#30563;&#23548;&#32452;&#32452;&#38271;</text><line style="stroke:#181818;stroke-width:0.5;" x1="336" x2="422" y1="152.9844" y2="152.9844"/></g><!--class ??--><g id="elem_&#29677;&#20250;"><rect codeLine="20" fill="#F1F1F1" height="129.4844" id="&#29677;&#20250;" rx="2.5" ry="2.5" style="stroke:#181818;stroke-width:0.5;" width="82" x="458" y="31.5"/><ellipse cx="482.9" cy="47.5" fill="#ADD1B2" rx="11" ry="11" style="stroke:#181818;stroke-width:1.0;"/><path d="M485.8688,53.1406 Q485.2906,53.4375 484.65,53.5781 Q484.0094,53.7344 483.3063,53.7344 Q480.8063,53.7344 479.4781,52.0938 Q478.1656,50.4375 478.1656,47.3125 Q478.1656,44.1875 479.4781,42.5313 Q480.8063,40.875 483.3063,40.875 Q484.0094,40.875 484.65,41.0313 Q485.3063,41.1875 485.8688,41.4844 L485.8688,44.2031 Q485.2438,43.625 484.65,43.3594 Q484.0563,43.0781 483.4313,43.0781 Q482.0875,43.0781 481.4,44.1563 Q480.7125,45.2188 480.7125,47.3125 Q480.7125,49.4063 481.4,50.4844 Q482.0875,51.5469 483.4313,51.5469 Q484.0563,51.5469 484.65,51.2813 Q485.2438,51 485.8688,50.4219 L485.8688,53.1406 Z " fill="#000000"/><text fill="#000000" font-family="sans-serif" font-size="14" lengthAdjust="spacing" textLength="28" x="499.1" y="52.3467">&#29677;&#20250;</text><line style="stroke:#181818;stroke-width:0.5;" x1="459" x2="539" y1="63.5" y2="63.5"/><text fill="#000000" font-family="sans-serif" font-size="14" lengthAdjust="spacing" textLength="56" x="464" y="80.4951">&#20316;&#19994;&#20869;&#23481;</text><text fill="#000000" font-family="sans-serif" font-size="14" lengthAdjust="spacing" textLength="70" x="464" y="96.792">&#24037;&#20316;&#36127;&#36131;&#20154;</text><text fill="#000000" font-family="sans-serif" font-size="14" lengthAdjust="spacing" textLength="56" x="464" y="113.0889">&#39118;&#38505;&#31561;&#32423;</text><text fill="#000000" font-family="sans-serif" font-size="14" lengthAdjust="spacing" textLength="56" x="464" y="129.3857">&#20316;&#19994;&#26102;&#38388;</text><text fill="#000000" font-family="sans-serif" font-size="14" lengthAdjust="spacing" textLength="56" x="464" y="145.6826">&#30417;&#25511;&#30011;&#38754;</text><line style="stroke:#181818;stroke-width:0.5;" x1="459" x2="539" y1="152.9844" y2="152.9844"/></g><!--class ????--><g id="elem_&#36829;&#31456;&#38382;&#39064;"><rect codeLine="27" fill="#F1F1F1" height="259.8594" id="&#36829;&#31456;&#38382;&#39064;" rx="2.5" ry="2.5" style="stroke:#181818;stroke-width:0.5;" width="124" x="247" y="245"/><ellipse cx="278.2" cy="261" fill="#ADD1B2" rx="11" ry="11" style="stroke:#181818;stroke-width:1.0;"/><path d="M281.1688,266.6406 Q280.5906,266.9375 279.95,267.0781 Q279.3094,267.2344 278.6063,267.2344 Q276.1063,267.2344 274.7781,265.5938 Q273.4656,263.9375 273.4656,260.8125 Q273.4656,257.6875 274.7781,256.0313 Q276.1063,254.375 278.6063,254.375 Q279.3094,254.375 279.95,254.5313 Q280.6063,254.6875 281.1688,254.9844 L281.1688,257.7031 Q280.5438,257.125 279.95,256.8594 Q279.3563,256.5781 278.7313,256.5781 Q277.3875,256.5781 276.7,257.6563 Q276.0125,258.7188 276.0125,260.8125 Q276.0125,262.9063 276.7,263.9844 Q277.3875,265.0469 278.7313,265.0469 Q279.3563,265.0469 279.95,264.7813 Q280.5438,264.5 281.1688,263.9219 L281.1688,266.6406 Z " fill="#000000"/><text fill="#000000" font-family="sans-serif" font-size="14" lengthAdjust="spacing" textLength="56" x="295.8" y="265.8467">&#36829;&#31456;&#38382;&#39064;</text><line style="stroke:#181818;stroke-width:0.5;" x1="248" x2="370" y1="277" y2="277"/><text fill="#000000" font-family="sans-serif" font-size="14" lengthAdjust="spacing" textLength="56" x="253" y="293.9951">&#38382;&#39064;&#25551;&#36848;</text><text fill="#000000" font-family="sans-serif" font-size="14" lengthAdjust="spacing" textLength="56" x="253" y="310.292">&#38382;&#39064;&#29366;&#24577;</text><text fill="#000000" font-family="sans-serif" font-size="14" lengthAdjust="spacing" textLength="56" x="253" y="326.5889">&#38382;&#39064;&#29031;&#29255;</text><text fill="#000000" font-family="sans-serif" font-size="14" lengthAdjust="spacing" textLength="56" x="253" y="342.8857">&#36829;&#31456;&#31034;&#20363;</text><text fill="#000000" font-family="sans-serif" font-size="14" lengthAdjust="spacing" textLength="56" x="253" y="359.1826">&#36829;&#21453;&#26465;&#20363;</text><text fill="#000000" font-family="sans-serif" font-size="14" lengthAdjust="spacing" textLength="56" x="253" y="375.4795">&#36829;&#31456;&#24615;&#36136;</text><text fill="#000000" font-family="sans-serif" font-size="14" lengthAdjust="spacing" textLength="56" x="253" y="391.7764">&#36829;&#31456;&#31561;&#32423;</text><text fill="#000000" font-family="sans-serif" font-size="14" lengthAdjust="spacing" textLength="56" x="253" y="408.0732">&#35745;&#20998;&#26631;&#20934;</text><text fill="#000000" font-family="sans-serif" font-size="14" lengthAdjust="spacing" textLength="112" x="253" y="424.3701">&#26159;&#21542;&#21464;&#26356;&#36829;&#31456;&#31561;&#32423;</text><text fill="#000000" font-family="sans-serif" font-size="14" lengthAdjust="spacing" textLength="56" x="253" y="440.667">&#36131;&#20219;&#21333;&#20301;</text><text fill="#000000" font-family="sans-serif" font-size="14" lengthAdjust="spacing" textLength="56" x="253" y="456.9639">&#25972;&#25913;&#26399;&#38480;</text><text fill="#000000" font-family="sans-serif" font-size="14" lengthAdjust="spacing" textLength="42" x="253" y="473.2607">&#21019;&#24314;&#20154;</text><text fill="#000000" font-family="sans-serif" font-size="14" lengthAdjust="spacing" textLength="56" x="253" y="489.5576">&#21019;&#24314;&#26102;&#38388;</text><line style="stroke:#181818;stroke-width:0.5;" x1="248" x2="370" y1="496.8594" y2="496.8594"/></g><!--class ????--><g id="elem_&#20219;&#21153;&#20998;&#37197;"><rect codeLine="43" fill="#F1F1F1" height="80.5938" id="&#20219;&#21153;&#20998;&#37197;" rx="2.5" ry="2.5" style="stroke:#181818;stroke-width:0.5;" width="88" x="406" y="334.5"/><ellipse cx="421" cy="350.5" fill="#ADD1B2" rx="11" ry="11" style="stroke:#181818;stroke-width:1.0;"/><path d="M423.9688,356.1406 Q423.3906,356.4375 422.75,356.5781 Q422.1094,356.7344 421.4063,356.7344 Q418.9063,356.7344 417.5781,355.0938 Q416.2656,353.4375 416.2656,350.3125 Q416.2656,347.1875 417.5781,345.5313 Q418.9063,343.875 421.4063,343.875 Q422.1094,343.875 422.75,344.0313 Q423.4063,344.1875 423.9688,344.4844 L423.9688,347.2031 Q423.3438,346.625 422.75,346.3594 Q422.1563,346.0781 421.5313,346.0781 Q420.1875,346.0781 419.5,347.1563 Q418.8125,348.2188 418.8125,350.3125 Q418.8125,352.4063 419.5,353.4844 Q420.1875,354.5469 421.5313,354.5469 Q422.1563,354.5469 422.75,354.2813 Q423.3438,354 423.9688,353.4219 L423.9688,356.1406 Z " fill="#000000"/><text fill="#000000" font-family="sans-serif" font-size="14" lengthAdjust="spacing" textLength="56" x="435" y="355.3467">&#20219;&#21153;&#20998;&#37197;</text><line style="stroke:#181818;stroke-width:0.5;" x1="407" x2="493" y1="366.5" y2="366.5"/><text fill="#000000" font-family="sans-serif" font-size="14" lengthAdjust="spacing" textLength="56" x="412" y="383.4951">&#20998;&#37197;&#26102;&#38388;</text><text fill="#000000" font-family="sans-serif" font-size="14" lengthAdjust="spacing" textLength="70" x="412" y="399.792">&#30563;&#26597;&#32452;&#32452;&#21592;</text><line style="stroke:#181818;stroke-width:0.5;" x1="407" x2="493" y1="407.0938" y2="407.0938"/></g><!--class ??--><g id="elem_&#20154;&#21592;"><rect codeLine="48" fill="#F1F1F1" height="113.1875" id="&#20154;&#21592;" rx="2.5" ry="2.5" style="stroke:#181818;stroke-width:0.5;" width="68" x="336" y="673"/><ellipse cx="354.6" cy="689" fill="#ADD1B2" rx="11" ry="11" style="stroke:#181818;stroke-width:1.0;"/><path d="M357.5688,694.6406 Q356.9906,694.9375 356.35,695.0781 Q355.7094,695.2344 355.0063,695.2344 Q352.5063,695.2344 351.1781,693.5938 Q349.8656,691.9375 349.8656,688.8125 Q349.8656,685.6875 351.1781,684.0313 Q352.5063,682.375 355.0063,682.375 Q355.7094,682.375 356.35,682.5313 Q357.0063,682.6875 357.5688,682.9844 L357.5688,685.7031 Q356.9438,685.125 356.35,684.8594 Q355.7563,684.5781 355.1313,684.5781 Q353.7875,684.5781 353.1,685.6563 Q352.4125,686.7188 352.4125,688.8125 Q352.4125,690.9063 353.1,691.9844 Q353.7875,693.0469 355.1313,693.0469 Q355.7563,693.0469 356.35,692.7813 Q356.9438,692.5 357.5688,691.9219 L357.5688,694.6406 Z " fill="#000000"/><text fill="#000000" font-family="sans-serif" font-size="14" lengthAdjust="spacing" textLength="28" x="369.4" y="693.8467">&#20154;&#21592;</text><line style="stroke:#181818;stroke-width:0.5;" x1="337" x2="403" y1="705" y2="705"/><text fill="#000000" font-family="sans-serif" font-size="14" lengthAdjust="spacing" textLength="28" x="342" y="721.9951">&#22995;&#21517;</text><text fill="#000000" font-family="sans-serif" font-size="14" lengthAdjust="spacing" textLength="56" x="342" y="738.292">&#25152;&#23646;&#37096;&#38376;</text><text fill="#000000" font-family="sans-serif" font-size="14" lengthAdjust="spacing" textLength="56" x="342" y="754.5889">&#25152;&#23646;&#21333;&#20301;</text><text fill="#000000" font-family="sans-serif" font-size="14" lengthAdjust="spacing" textLength="56" x="342" y="770.8857">&#32852;&#31995;&#26041;&#24335;</text><line style="stroke:#181818;stroke-width:0.5;" x1="337" x2="403" y1="778.1875" y2="778.1875"/></g><!--class ??--><g id="elem_&#30003;&#35785;"><rect codeLine="55" fill="#F1F1F1" height="129.4844" id="&#30003;&#35785;" rx="2.5" ry="2.5" style="stroke:#181818;stroke-width:0.5;" width="82" x="130" y="310.5"/><ellipse cx="154.9" cy="326.5" fill="#ADD1B2" rx="11" ry="11" style="stroke:#181818;stroke-width:1.0;"/><path d="M157.8688,332.1406 Q157.2906,332.4375 156.65,332.5781 Q156.0094,332.7344 155.3063,332.7344 Q152.8063,332.7344 151.4781,331.0938 Q150.1656,329.4375 150.1656,326.3125 Q150.1656,323.1875 151.4781,321.5313 Q152.8063,319.875 155.3063,319.875 Q156.0094,319.875 156.65,320.0313 Q157.3063,320.1875 157.8688,320.4844 L157.8688,323.2031 Q157.2438,322.625 156.65,322.3594 Q156.0563,322.0781 155.4313,322.0781 Q154.0875,322.0781 153.4,323.1563 Q152.7125,324.2188 152.7125,326.3125 Q152.7125,328.4063 153.4,329.4844 Q154.0875,330.5469 155.4313,330.5469 Q156.0563,330.5469 156.65,330.2813 Q157.2438,330 157.8688,329.4219 L157.8688,332.1406 Z " fill="#000000"/><text fill="#000000" font-family="sans-serif" font-size="14" lengthAdjust="spacing" textLength="28" x="171.1" y="331.3467">&#30003;&#35785;</text><line style="stroke:#181818;stroke-width:0.5;" x1="131" x2="211" y1="342.5" y2="342.5"/><text fill="#000000" font-family="sans-serif" font-size="14" lengthAdjust="spacing" textLength="56" x="136" y="359.4951">&#30003;&#35785;&#26102;&#38388;</text><text fill="#000000" font-family="sans-serif" font-size="14" lengthAdjust="spacing" textLength="70" x="136" y="375.792">&#30003;&#35785;&#25552;&#20132;&#20154;</text><text fill="#000000" font-family="sans-serif" font-size="14" lengthAdjust="spacing" textLength="56" x="136" y="392.0889">&#30003;&#35785;&#20869;&#23481;</text><text fill="#000000" font-family="sans-serif" font-size="14" lengthAdjust="spacing" textLength="56" x="136" y="408.3857">&#30003;&#35785;&#38468;&#20214;</text><text fill="#000000" font-family="sans-serif" font-size="14" lengthAdjust="spacing" textLength="56" x="136" y="424.6826">&#30003;&#35785;&#29366;&#24577;</text><line style="stroke:#181818;stroke-width:0.5;" x1="131" x2="211" y1="431.9844" y2="431.9844"/></g><!--class ????--><g id="elem_&#30003;&#35785;&#23457;&#26680;"><rect codeLine="63" fill="#F1F1F1" height="113.1875" id="&#30003;&#35785;&#23457;&#26680;" rx="2.5" ry="2.5" style="stroke:#181818;stroke-width:0.5;" width="88" x="7" y="318.5"/><ellipse cx="22" cy="334.5" fill="#ADD1B2" rx="11" ry="11" style="stroke:#181818;stroke-width:1.0;"/><path d="M24.9688,340.1406 Q24.3906,340.4375 23.75,340.5781 Q23.1094,340.7344 22.4063,340.7344 Q19.9063,340.7344 18.5781,339.0938 Q17.2656,337.4375 17.2656,334.3125 Q17.2656,331.1875 18.5781,329.5313 Q19.9063,327.875 22.4063,327.875 Q23.1094,327.875 23.75,328.0313 Q24.4063,328.1875 24.9688,328.4844 L24.9688,331.2031 Q24.3438,330.625 23.75,330.3594 Q23.1563,330.0781 22.5313,330.0781 Q21.1875,330.0781 20.5,331.1563 Q19.8125,332.2188 19.8125,334.3125 Q19.8125,336.4063 20.5,337.4844 Q21.1875,338.5469 22.5313,338.5469 Q23.1563,338.5469 23.75,338.2813 Q24.3438,338 24.9688,337.4219 L24.9688,340.1406 Z " fill="#000000"/><text fill="#000000" font-family="sans-serif" font-size="14" lengthAdjust="spacing" textLength="56" x="36" y="339.3467">&#30003;&#35785;&#23457;&#26680;</text><line style="stroke:#181818;stroke-width:0.5;" x1="8" x2="94" y1="350.5" y2="350.5"/><text fill="#000000" font-family="sans-serif" font-size="14" lengthAdjust="spacing" textLength="56" x="13" y="367.4951">&#23457;&#26680;&#26102;&#38388;</text><text fill="#000000" font-family="sans-serif" font-size="14" lengthAdjust="spacing" textLength="42" x="13" y="383.792">&#23457;&#26680;&#20154;</text><text fill="#000000" font-family="sans-serif" font-size="14" lengthAdjust="spacing" textLength="56" x="13" y="400.0889">&#26159;&#21542;&#36890;&#36807;</text><text fill="#000000" font-family="sans-serif" font-size="14" lengthAdjust="spacing" textLength="56" x="13" y="416.3857">&#39539;&#22238;&#29702;&#30001;</text><line style="stroke:#181818;stroke-width:0.5;" x1="8" x2="94" y1="423.6875" y2="423.6875"/></g><!--class ????--><g id="elem_&#30563;&#23519;&#20154;&#21592;"><rect codeLine="69" fill="#F1F1F1" height="48" id="&#30563;&#23519;&#20154;&#21592;" rx="2.5" ry="2.5" style="stroke:#181818;stroke-width:0.5;" width="88" x="388" y="565"/><ellipse cx="403" cy="581" fill="#ADD1B2" rx="11" ry="11" style="stroke:#181818;stroke-width:1.0;"/><path d="M405.9688,586.6406 Q405.3906,586.9375 404.75,587.0781 Q404.1094,587.2344 403.4063,587.2344 Q400.9063,587.2344 399.5781,585.5938 Q398.2656,583.9375 398.2656,580.8125 Q398.2656,577.6875 399.5781,576.0313 Q400.9063,574.375 403.4063,574.375 Q404.1094,574.375 404.75,574.5313 Q405.4063,574.6875 405.9688,574.9844 L405.9688,577.7031 Q405.3438,577.125 404.75,576.8594 Q404.1563,576.5781 403.5313,576.5781 Q402.1875,576.5781 401.5,577.6563 Q400.8125,578.7188 400.8125,580.8125 Q400.8125,582.9063 401.5,583.9844 Q402.1875,585.0469 403.5313,585.0469 Q404.1563,585.0469 404.75,584.7813 Q405.3438,584.5 405.9688,583.9219 L405.9688,586.6406 Z " fill="#000000"/><text fill="#000000" font-family="sans-serif" font-size="14" lengthAdjust="spacing" textLength="56" x="417" y="585.8467">&#30563;&#23519;&#20154;&#21592;</text><line style="stroke:#181818;stroke-width:0.5;" x1="389" x2="475" y1="597" y2="597"/><line style="stroke:#181818;stroke-width:0.5;" x1="389" x2="475" y1="605" y2="605"/></g><!--class ????--><g id="elem_&#36131;&#20219;&#20154;&#21592;"><rect codeLine="70" fill="#F1F1F1" height="48" id="&#36131;&#20219;&#20154;&#21592;" rx="2.5" ry="2.5" style="stroke:#181818;stroke-width:0.5;" width="88" x="265" y="565"/><ellipse cx="280" cy="581" fill="#ADD1B2" rx="11" ry="11" style="stroke:#181818;stroke-width:1.0;"/><path d="M282.9688,586.6406 Q282.3906,586.9375 281.75,587.0781 Q281.1094,587.2344 280.4063,587.2344 Q277.9063,587.2344 276.5781,585.5938 Q275.2656,583.9375 275.2656,580.8125 Q275.2656,577.6875 276.5781,576.0313 Q277.9063,574.375 280.4063,574.375 Q281.1094,574.375 281.75,574.5313 Q282.4063,574.6875 282.9688,574.9844 L282.9688,577.7031 Q282.3438,577.125 281.75,576.8594 Q281.1563,576.5781 280.5313,576.5781 Q279.1875,576.5781 278.5,577.6563 Q277.8125,578.7188 277.8125,580.8125 Q277.8125,582.9063 278.5,583.9844 Q279.1875,585.0469 280.5313,585.0469 Q281.1563,585.0469 281.75,584.7813 Q282.3438,584.5 282.9688,583.9219 L282.9688,586.6406 Z " fill="#000000"/><text fill="#000000" font-family="sans-serif" font-size="14" lengthAdjust="spacing" textLength="56" x="294" y="585.8467">&#36131;&#20219;&#20154;&#21592;</text><line style="stroke:#181818;stroke-width:0.5;" x1="266" x2="352" y1="597" y2="597"/><line style="stroke:#181818;stroke-width:0.5;" x1="266" x2="352" y1="605" y2="605"/></g><g id="elem_N1"><path d="M144,576.5 L144,601.6328 A0,0 0 0 0 144,601.6328 L230,601.6328 A0,0 0 0 0 230,601.6328 L230,594.5 L264.77,589 L230,586.5 L230,586.5 L220,576.5 L144,576.5 A0,0 0 0 0 144,576.5 " fill="#FEFFDD" style="stroke:#181818;stroke-width:0.5;"/><path d="M220,576.5 L220,586.5 L230,586.5 L220,576.5 " fill="#FEFFDD" style="stroke:#181818;stroke-width:0.5;"/><text fill="#000000" font-family="sans-serif" font-size="13" lengthAdjust="spacing" textLength="65" x="150" y="593.5669">&#25972;&#25913;&#36127;&#36131;&#20154;</text></g><!--link ???? to ??--><g id="link_&#30563;&#23519;&#20154;&#21592;_&#20154;&#21592;"><path codeLine="75" d="M421.62,613.18 C414.89,628.23 405.77,648.59 397.07,668.02 " fill="none" id="&#30563;&#23519;&#20154;&#21592;-to-&#20154;&#21592;" style="stroke:#181818;stroke-width:1.0;"/><polygon fill="#181818" points="394.87,672.94,402.2015,666.3636,396.9153,668.3775,394.9015,663.0912,394.87,672.94" style="stroke:#181818;stroke-width:1.0;"/></g><!--link ???? to ??--><g id="link_&#36131;&#20219;&#20154;&#21592;_&#20154;&#21592;"><path codeLine="76" d="M319.21,613.18 C325.84,628.23 334.81,648.59 343.36,668.02 " fill="none" id="&#36131;&#20219;&#20154;&#21592;-to-&#20154;&#21592;" style="stroke:#181818;stroke-width:1.0;"/><polygon fill="#181818" points="345.53,672.94,345.5615,663.0912,343.5139,668.3645,338.2406,666.3169,345.53,672.94" style="stroke:#181818;stroke-width:1.0;"/></g><!--reverse link ???? to ????--><g id="link_&#30563;&#23519;&#35745;&#21010;_&#30563;&#23519;&#20219;&#21153;"><path codeLine="78" d="M313.25,96 C320.49,96 327.74,96 334.98,96 " fill="none" id="&#30563;&#23519;&#35745;&#21010;-backto-&#30563;&#23519;&#20219;&#21153;" style="stroke:#181818;stroke-width:1.0;"/><polygon fill="none" points="300.2,96,306.2,100,312.2,96,306.2,92,300.2,96" style="stroke:#181818;stroke-width:1.0;"/><text fill="#000000" font-family="sans-serif" font-size="13" lengthAdjust="spacing" textLength="8" x="307.8819" y="91.8523">1</text><text fill="#000000" font-family="sans-serif" font-size="13" lengthAdjust="spacing" textLength="24" x="303.1022" y="91.9875">0..1</text></g><!--reverse link ???? to ????--><g id="link_&#30563;&#23519;&#20219;&#21153;_&#36829;&#31456;&#38382;&#39064;"><path codeLine="79" d="M359.72,173.29 C354.11,195.49 347.82,220.39 341.63,244.9 " fill="none" id="&#30563;&#23519;&#20219;&#21153;-backto-&#36829;&#31456;&#38382;&#39064;" style="stroke:#181818;stroke-width:1.0;"/><polygon fill="#181818" points="362.94,160.55,357.5926,165.3879,360.0017,172.1847,365.3491,167.3468,362.94,160.55" style="stroke:#181818;stroke-width:1.0;"/><text fill="#000000" font-family="sans-serif" font-size="13" lengthAdjust="spacing" textLength="8" x="352.6206" y="180.9274">1</text><text fill="#000000" font-family="sans-serif" font-size="13" lengthAdjust="spacing" textLength="24" x="318.8227" y="234.0198">0..n</text></g><!--reverse link ???? to ??--><g id="link_&#30563;&#23519;&#20219;&#21153;_&#29677;&#20250;"><path codeLine="80" d="M436.08,96 C443.31,96 450.54,96 457.77,96 " fill="none" id="&#30563;&#23519;&#20219;&#21153;-backto-&#29677;&#20250;" style="stroke:#181818;stroke-width:1.0;"/><polygon fill="#181818" points="423.06,96,429.06,100,435.06,96,429.06,92,423.06,96" style="stroke:#181818;stroke-width:1.0;"/><text fill="#000000" font-family="sans-serif" font-size="13" lengthAdjust="spacing" textLength="8" x="431.0199" y="91.7956">1</text><text fill="#000000" font-family="sans-serif" font-size="13" lengthAdjust="spacing" textLength="24" x="425.9518" y="91.9395">0..1</text></g><!--reverse link ???? to ????--><g id="link_&#30563;&#23519;&#20219;&#21153;_&#20219;&#21153;&#20998;&#37197;"><path codeLine="81" d="M398.6,173.46 C411.96,225.58 429.1,292.47 439.82,334.29 " fill="none" id="&#30563;&#23519;&#20219;&#21153;-backto-&#20219;&#21153;&#20998;&#37197;" style="stroke:#181818;stroke-width:1.0;"/><polygon fill="#181818" points="395.29,160.55,392.9063,167.3557,398.2718,172.1736,400.6554,165.3679,395.29,160.55" style="stroke:#181818;stroke-width:1.0;"/><text fill="#000000" font-family="sans-serif" font-size="13" lengthAdjust="spacing" textLength="8" x="388.711" y="180.9274">1</text><text fill="#000000" font-family="sans-serif" font-size="13" lengthAdjust="spacing" textLength="8" x="429.4714" y="323.4168">1</text></g><!--reverse link ???? to ????--><g id="link_&#20219;&#21153;&#20998;&#37197;_&#30563;&#23519;&#20154;&#21592;"><path codeLine="82" d="M445.51,428.88 C441.8,472.6 436.7,532.6 433.95,565 " fill="none" id="&#20219;&#21153;&#20998;&#37197;-backto-&#30563;&#23519;&#20154;&#21592;" style="stroke:#181818;stroke-width:1.0;"/><polygon fill="none" points="446.61,415.88,442.1168,421.5201,445.5949,427.837,450.0881,422.1969,446.61,415.88" style="stroke:#181818;stroke-width:1.0;"/><text fill="#000000" font-family="sans-serif" font-size="13" lengthAdjust="spacing" textLength="8" x="437.5246" y="435.0923">1</text><text fill="#000000" font-family="sans-serif" font-size="13" lengthAdjust="spacing" textLength="24" x="437.5247" y="554.012">1..n</text></g><!--reverse link ???? to ????--><g id="link_&#36829;&#31456;&#38382;&#39064;_&#30563;&#23519;&#20154;&#21592;"><path codeLine="83" d="M377.74,494.48 C393.32,521.33 408.27,547.09 418.51,564.76 " fill="none" id="&#36829;&#31456;&#38382;&#39064;-backto-&#30563;&#23519;&#20154;&#21592;" style="stroke:#181818;stroke-width:1.0;"/><polygon fill="none" points="371.04,482.93,370.5939,490.1273,377.0659,493.3073,377.5121,486.11,371.04,482.93" style="stroke:#181818;stroke-width:1.0;"/><text fill="#000000" font-family="sans-serif" font-size="13" lengthAdjust="spacing" textLength="8" x="379.0886" y="492.2535">1</text><text fill="#000000" font-family="sans-serif" font-size="13" lengthAdjust="spacing" textLength="8" x="406.2468" y="554.1065">1</text></g><!--reverse link ???? to ????--><g id="link_&#36829;&#31456;&#38382;&#39064;_&#36131;&#20219;&#20154;&#21592;"><path codeLine="84" d="M309,518.13 C309,536.12 309,552.53 309,564.92 " fill="none" id="&#36829;&#31456;&#38382;&#39064;-backto-&#36131;&#20219;&#20154;&#21592;" style="stroke:#181818;stroke-width:1.0;"/><polygon fill="none" points="309,505.12,305,511.12,309,517.12,313,511.12,309,505.12" style="stroke:#181818;stroke-width:1.0;"/><text fill="#000000" font-family="sans-serif" font-size="13" lengthAdjust="spacing" textLength="8" x="300.7813" y="524.7205">1</text><text fill="#000000" font-family="sans-serif" font-size="13" lengthAdjust="spacing" textLength="8" x="299.975" y="553.9115">1</text></g><!--link ?? to ????--><g id="link_&#30003;&#35785;_&#36829;&#31456;&#38382;&#39064;"><path codeLine="85" d="M212.24,375 C219.31,375 226.39,375 233.47,375 " fill="none" id="&#30003;&#35785;-to-&#36829;&#31456;&#38382;&#39064;" style="stroke:#181818;stroke-width:1.0;"/><polygon fill="#181818" points="246.63,375,240.63,371,234.63,375,240.63,379,246.63,375" style="stroke:#181818;stroke-width:1.0;"/><text fill="#000000" font-family="sans-serif" font-size="13" lengthAdjust="spacing" textLength="8" x="220.0156" y="370.7476">1</text><text fill="#000000" font-family="sans-serif" font-size="13" lengthAdjust="spacing" textLength="8" x="230.956" y="371.2155">1</text></g><!--link ???? to ??--><g id="link_&#30003;&#35785;&#23457;&#26680;_&#30003;&#35785;"><path codeLine="86" d="M95.06,375 C102.29,375 109.52,375 116.75,375 " fill="none" id="&#30003;&#35785;&#23457;&#26680;-to-&#30003;&#35785;" style="stroke:#181818;stroke-width:1.0;"/><polygon fill="#181818" points="129.77,375,123.77,371,117.77,375,123.77,379,129.77,375" style="stroke:#181818;stroke-width:1.0;"/><text fill="#000000" font-family="sans-serif" font-size="13" lengthAdjust="spacing" textLength="24" x="102.9434" y="371.0084">0..n</text><text fill="#000000" font-family="sans-serif" font-size="13" lengthAdjust="spacing" textLength="8" x="113.9961" y="370.7476">1</text></g><!--SRC=[ZPJhRjem68R_voeiVauAMczWbx1xgAhk85MjDFY79b6jG2c2m1hA8Gs7qYvKLQ68Z9K4oit4TdmNCxO3Nrec3I4bVdZjx_1-vk1eFvL2r1xWSJSSzV7vJvJH4FyGzmKRDNen8zbJ0R3lKIueruDbMG3MdrDhXAjbwZn9CAYmrZtEv_1e3W1zB5BF4O2Qlt6b101UPB5J8eqPQxXIuLyIkwl0T-q0f1VuFhxeH-bTBV6VEv0DjMgqcWU05BDuqc4_Xgmnb0fxGBftTEBZJYa2UBoW_Xd_ilfg6yvu31Pj6ITONWVFRL0JZyfPw7P3Tn1utkuwvIvObbKZ5OUQFhDlDd72bKqVUgmnOZTDLPPS4CC8Lqy001iKo3cqM110da9llU2b505ib8dT1u0hIDO9tI7SiirNE9ydlG8kv6NpccDS_OMD9h7SjsfUEVS2jBhk4dDEhhkiLPLDEhVuk4JjaQkDfwfwQISFotBbZDAjts7Nf6F285nhWhsUnzTgbtF9Pt2tvHA0JCDJaqvzSZN72sDx73MduRYOKIEwVeT9I61K0-ysgaWoC1KIiDPPuCy0KBwz2eH7VT9xLjcBTn1EWYYGz85bs-5AkitkfzZgy4cdvkJr_H1DYMPBUAIGTdoIFaG9QTDcT1DeFuK-xcbGYfB9eyDFwJNMuAb8rp-ehiVrW6knVv74NWATwFgthv-_f57YVJB9r_0UQx5BlLQ_qtKXF4x4RiPEOVnOSL_HFqxaJpXgI8kjL9hyAGB7EXcxdrlX_wfY5hnHyTn4fyLvOYmq-OZ_Ali1v-Ol]--></g></svg>