<?xml version="1.0" encoding="us-ascii" standalone="no"?><svg xmlns="http://www.w3.org/2000/svg" xmlns:xlink="http://www.w3.org/1999/xlink" contentStyleType="text/css" height="478px" preserveAspectRatio="none" style="width:321px;height:478px;background:#FFFFFF;" version="1.1" viewBox="0 0 321 478" width="321px" zoomAndPan="magnify"><defs/><g><ellipse cx="125" cy="16" fill="#181818" rx="10" ry="10" style="stroke:none;stroke-width:1.0;"/><g id="&#24453;&#25972;&#25913;"><rect fill="#F1F1F1" height="50" rx="12.5" ry="12.5" style="stroke:#181818;stroke-width:0.5;" width="62" x="94" y="87"/><line style="stroke:#181818;stroke-width:0.5;" x1="94" x2="156" y1="113.4883" y2="113.4883"/><text fill="#000000" font-family="sans-serif" font-size="14" lengthAdjust="spacing" textLength="42" x="104" y="105.5352">&#24453;&#25972;&#25913;</text></g><g id="&#30003;&#35785;&#24453;&#23457;&#26680;"><rect fill="#F1F1F1" height="50" rx="12.5" ry="12.5" style="stroke:#181818;stroke-width:0.5;" width="90" x="7" y="214"/><line style="stroke:#181818;stroke-width:0.5;" x1="7" x2="97" y1="240.4883" y2="240.4883"/><text fill="#000000" font-family="sans-serif" font-size="14" lengthAdjust="spacing" textLength="70" x="17" y="232.5352">&#30003;&#35785;&#24453;&#23457;&#26680;</text></g><g id="&#30003;&#35785;&#25104;&#21151;"><rect fill="#F1F1F1" height="50" rx="12.5" ry="12.5" style="stroke:#181818;stroke-width:0.5;" width="76" x="37" y="341"/><line style="stroke:#181818;stroke-width:0.5;" x1="37" x2="113" y1="367.4883" y2="367.4883"/><text fill="#000000" font-family="sans-serif" font-size="14" lengthAdjust="spacing" textLength="56" x="47" y="359.5352">&#30003;&#35785;&#25104;&#21151;</text></g><g id="&#25972;&#25913;&#23457;&#26680;&#20013;"><rect fill="#F1F1F1" height="50" rx="12.5" ry="12.5" style="stroke:#181818;stroke-width:0.5;" width="90" x="164" y="214"/><line style="stroke:#181818;stroke-width:0.5;" x1="164" x2="254" y1="240.4883" y2="240.4883"/><text fill="#000000" font-family="sans-serif" font-size="14" lengthAdjust="spacing" textLength="70" x="174" y="232.5352">&#25972;&#25913;&#23457;&#26680;&#20013;</text></g><g id="&#25972;&#25913;&#23436;&#25104;"><rect fill="#F1F1F1" height="50" rx="12.5" ry="12.5" style="stroke:#181818;stroke-width:0.5;" width="76" x="157" y="341"/><line style="stroke:#181818;stroke-width:0.5;" x1="157" x2="233" y1="367.4883" y2="367.4883"/><text fill="#000000" font-family="sans-serif" font-size="14" lengthAdjust="spacing" textLength="56" x="167" y="359.5352">&#25972;&#25913;&#23436;&#25104;</text></g><ellipse cx="130" cy="462" fill="none" rx="10" ry="10" style="stroke:#181818;stroke-width:1.0;"/><ellipse cx="130.5" cy="462.5" fill="#181818" rx="6" ry="6" style="stroke:none;stroke-width:1.0;"/><!--link *start* to ???--><g id="link_*start*_&#24453;&#25972;&#25913;"><path d="M125,26.36 C125,38.98 125,62.07 125,80.94 " fill="none" id="*start*-to-&#24453;&#25972;&#25913;" style="stroke:#181818;stroke-width:1.0;"/><polygon fill="#181818" points="125,85.65,129,76.65,125,80.65,121,76.65,125,85.65" style="stroke:#181818;stroke-width:1.0;"/></g><!--link ??? to ?????--><g id="link_&#24453;&#25972;&#25913;_&#30003;&#35785;&#24453;&#23457;&#26680;"><path d="M93.5,122.99 C73.14,131.27 48.23,145.27 36,167 C28.95,179.52 31.32,194.94 36.14,208.2 " fill="none" id="&#24453;&#25972;&#25913;-to-&#30003;&#35785;&#24453;&#23457;&#26680;" style="stroke:#181818;stroke-width:1.0;"/><polygon fill="#181818" points="38.33,212.73,38.7379,202.8896,36.4903,208.0808,31.2991,205.8332,38.33,212.73" style="stroke:#181818;stroke-width:1.0;"/><text fill="#000000" font-family="sans-serif" font-size="13" lengthAdjust="spacing" textLength="130" x="37" y="180.5684">&#25972;&#25913;&#36127;&#36131;&#20154;&#25552;&#20132;&#20102;&#30003;&#35785;</text></g><!--link ????? to ????--><g id="link_&#30003;&#35785;&#24453;&#23457;&#26680;_&#30003;&#35785;&#25104;&#21151;"><path d="M56.49,264.4 C60.19,284.53 65.47,313.19 69.44,334.78 " fill="none" id="&#30003;&#35785;&#24453;&#23457;&#26680;-to-&#30003;&#35785;&#25104;&#21151;" style="stroke:#181818;stroke-width:1.0;"/><polygon fill="#181818" points="70.52,339.66,72.8333,330.0867,69.6193,334.7418,64.9641,331.5278,70.52,339.66" style="stroke:#181818;stroke-width:1.0;"/><text fill="#000000" font-family="sans-serif" font-size="13" lengthAdjust="spacing" textLength="104" x="66" y="307.5684">&#19977;&#32423;&#23457;&#26680;&#20840;&#37096;&#36890;&#36807;</text></g><!--link ??? to ?????--><g id="link_&#24453;&#25972;&#25913;_&#25972;&#25913;&#23457;&#26680;&#20013;"><path d="M148.29,137.28 C156.3,146.24 165,156.73 172,167 C180.85,179.98 189.09,195.33 195.54,208.44 " fill="none" id="&#24453;&#25972;&#25913;-to-&#25972;&#25913;&#23457;&#26680;&#20013;" style="stroke:#181818;stroke-width:1.0;"/><polygon fill="#181818" points="198.02,212.53,197.6859,202.6868,195.8355,208.0325,190.4898,206.182,198.02,212.53" style="stroke:#181818;stroke-width:1.0;"/><text fill="#000000" font-family="sans-serif" font-size="13" lengthAdjust="spacing" textLength="130" x="183" y="180.5684">&#25972;&#25913;&#36127;&#36131;&#20154;&#25552;&#20132;&#20102;&#25972;&#25913;</text></g><!--link ????? to ????--><g id="link_&#25972;&#25913;&#23457;&#26680;&#20013;_&#25972;&#25913;&#23436;&#25104;"><path d="M206.27,264.4 C204.01,284.53 200.8,313.19 198.39,334.78 " fill="none" id="&#25972;&#25913;&#23457;&#26680;&#20013;-to-&#25972;&#25913;&#23436;&#25104;" style="stroke:#181818;stroke-width:1.0;"/><polygon fill="#181818" points="197.73,339.66,202.7075,331.1615,198.2869,334.6911,194.7572,330.2705,197.73,339.66" style="stroke:#181818;stroke-width:1.0;"/><text fill="#000000" font-family="sans-serif" font-size="13" lengthAdjust="spacing" textLength="104" x="203" y="307.5684">&#20004;&#32423;&#23457;&#26680;&#20840;&#37096;&#36890;&#36807;</text></g><!--link ???? to *end*--><g id="link_&#30003;&#35785;&#25104;&#21151;_*end*"><path d="M89.16,391.21 C99.71,409.23 113.71,433.15 122.27,447.79 " fill="none" id="&#30003;&#35785;&#25104;&#21151;-to-*end*" style="stroke:#181818;stroke-width:1.0;"/><polygon fill="#181818" points="125.17,451.74,124.0701,441.9527,122.6418,447.4263,117.1682,445.9979,125.17,451.74" style="stroke:#181818;stroke-width:1.0;"/></g><!--link ???? to *end*--><g id="link_&#25972;&#25913;&#23436;&#25104;_*end*"><path d="M178.26,391.21 C165.66,409.42 148.9,433.67 138.81,448.26 " fill="none" id="&#25972;&#25913;&#23436;&#25104;-to-*end*" style="stroke:#181818;stroke-width:1.0;"/><polygon fill="#181818" points="135.41,452.17,143.829,447.0593,138.262,448.0632,137.2581,442.4961,135.41,452.17" style="stroke:#181818;stroke-width:1.0;"/></g><!--SRC=[YzQALT3LjLDukg_rsTGjpwRiv8ApmEBFfsn-iRuJAFPqtS9d2tOeM2b095zicVzYo-8dktOzwv_mPDUI9xlQ82gvq3KW37dMCU5frtoW2KzsT3xVjHmY_xHrnSlc5IyRPhtOtuvcDOG9KVPanreyLaDTZgu1sP0UeErWgvTWjnh5YI2DqLgnN2YQeO80]--></g></svg>