<?xml version="1.0" encoding="us-ascii" standalone="no"?><svg xmlns="http://www.w3.org/2000/svg" xmlns:xlink="http://www.w3.org/1999/xlink" contentStyleType="text/css" height="478px" preserveAspectRatio="none" style="width:321px;height:478px;background:#FFFFFF;" version="1.1" viewBox="0 0 321 478" width="321px" zoomAndPan="magnify"><defs/><g><ellipse cx="125" cy="16" fill="#181818" rx="10" ry="10" style="stroke:none;stroke-width:1.0;"/><g id="&#24453;&#25972;&#25913;"><rect fill="#F1F1F1" height="50" rx="12.5" ry="12.5" style="stroke:#181818;stroke-width:0.5;" width="62" x="94" y="87"/><line style="stroke:#181818;stroke-width:0.5;" x1="94" x2="156" y1="113.2969" y2="113.2969"/><text fill="#000000" font-family="sans-serif" font-size="14" lengthAdjust="spacing" textLength="42" x="104" y="104.9951">&#24453;&#25972;&#25913;</text></g><g id="&#30003;&#35785;&#24453;&#23457;&#26680;"><rect fill="#F1F1F1" height="50" rx="12.5" ry="12.5" style="stroke:#181818;stroke-width:0.5;" width="90" x="7" y="214"/><line style="stroke:#181818;stroke-width:0.5;" x1="7" x2="97" y1="240.2969" y2="240.2969"/><text fill="#000000" font-family="sans-serif" font-size="14" lengthAdjust="spacing" textLength="70" x="17" y="231.9951">&#30003;&#35785;&#24453;&#23457;&#26680;</text></g><g id="&#30003;&#35785;&#25104;&#21151;"><rect fill="#F1F1F1" height="50" rx="12.5" ry="12.5" style="stroke:#181818;stroke-width:0.5;" width="76" x="37" y="341"/><line style="stroke:#181818;stroke-width:0.5;" x1="37" x2="113" y1="367.2969" y2="367.2969"/><text fill="#000000" font-family="sans-serif" font-size="14" lengthAdjust="spacing" textLength="56" x="47" y="358.9951">&#30003;&#35785;&#25104;&#21151;</text></g><g id="&#25972;&#25913;&#23457;&#26680;&#20013;"><rect fill="#F1F1F1" height="50" rx="12.5" ry="12.5" style="stroke:#181818;stroke-width:0.5;" width="90" x="164" y="214"/><line style="stroke:#181818;stroke-width:0.5;" x1="164" x2="254" y1="240.2969" y2="240.2969"/><text fill="#000000" font-family="sans-serif" font-size="14" lengthAdjust="spacing" textLength="70" x="174" y="231.9951">&#25972;&#25913;&#23457;&#26680;&#20013;</text></g><g id="&#25972;&#25913;&#23436;&#25104;"><rect fill="#F1F1F1" height="50" rx="12.5" ry="12.5" style="stroke:#181818;stroke-width:0.5;" width="76" x="157" y="341"/><line style="stroke:#181818;stroke-width:0.5;" x1="157" x2="233" y1="367.2969" y2="367.2969"/><text fill="#000000" font-family="sans-serif" font-size="14" lengthAdjust="spacing" textLength="56" x="167" y="358.9951">&#25972;&#25913;&#23436;&#25104;</text></g><ellipse cx="130" cy="462" fill="none" rx="10" ry="10" style="stroke:#181818;stroke-width:1.0;"/><ellipse cx="130.5" cy="462.5" fill="#181818" rx="6" ry="6" style="stroke:none;stroke-width:1.0;"/><!--link *start* to ???--><g id="link_*start*_&#24453;&#25972;&#25913;"><path d="M125,26.01 C125,38.7 125,62.41 125,81.57 " fill="none" id="*start*-to-&#24453;&#25972;&#25913;" style="stroke:#181818;stroke-width:1.0;"/><polygon fill="#181818" points="125,86.84,129,77.84,125,81.84,121,77.84,125,86.84" style="stroke:#181818;stroke-width:1.0;"/></g><!--link ??? to ?????--><g id="link_&#24453;&#25972;&#25913;_&#30003;&#35785;&#24453;&#23457;&#26680;"><path d="M93.94,122.81 C73.5,131.07 48.32,145.11 36,167 C28.82,179.75 31.41,195.49 36.4,208.91 " fill="none" id="&#24453;&#25972;&#25913;-to-&#30003;&#35785;&#24453;&#23457;&#26680;" style="stroke:#181818;stroke-width:1.0;"/><polygon fill="#181818" points="38.33,213.73,38.7014,203.8881,36.473,209.0876,31.2736,206.8593,38.33,213.73" style="stroke:#181818;stroke-width:1.0;"/><text fill="#000000" font-family="sans-serif" font-size="13" lengthAdjust="spacing" textLength="130" x="37" y="180.0669">&#25972;&#25913;&#36127;&#36131;&#20154;&#25552;&#20132;&#20102;&#30003;&#35785;</text></g><!--link ????? to ????--><g id="link_&#30003;&#35785;&#24453;&#23457;&#26680;_&#30003;&#35785;&#25104;&#21151;"><path d="M56.43,264.1 C60.21,284.59 65.63,314.08 69.64,335.88 " fill="none" id="&#30003;&#35785;&#24453;&#23457;&#26680;-to-&#30003;&#35785;&#25104;&#21151;" style="stroke:#181818;stroke-width:1.0;"/><polygon fill="#181818" points="70.58,340.97,72.8982,331.3979,69.6818,336.0513,65.0283,332.835,70.58,340.97" style="stroke:#181818;stroke-width:1.0;"/><text fill="#000000" font-family="sans-serif" font-size="13" lengthAdjust="spacing" textLength="104" x="66" y="307.0669">&#19977;&#32423;&#23457;&#26680;&#20840;&#37096;&#36890;&#36807;</text></g><!--link ??? to ?????--><g id="link_&#24453;&#25972;&#25913;_&#25972;&#25913;&#23457;&#26680;&#20013;"><path d="M148.05,137.01 C156.12,146.03 164.93,156.63 172,167 C180.99,180.2 189.37,195.85 195.87,209.09 " fill="none" id="&#24453;&#25972;&#25913;-to-&#25972;&#25913;&#23457;&#26680;&#20013;" style="stroke:#181818;stroke-width:1.0;"/><polygon fill="#181818" points="198.17,213.86,197.8359,204.0168,195.9855,209.3625,190.6398,207.512,198.17,213.86" style="stroke:#181818;stroke-width:1.0;"/><text fill="#000000" font-family="sans-serif" font-size="13" lengthAdjust="spacing" textLength="130" x="183" y="180.0669">&#25972;&#25913;&#36127;&#36131;&#20154;&#25552;&#20132;&#20102;&#25972;&#25913;</text></g><!--link ????? to ????--><g id="link_&#25972;&#25913;&#23457;&#26680;&#20013;_&#25972;&#25913;&#23436;&#25104;"><path d="M206.3,264.1 C204.01,284.59 200.7,314.08 198.26,335.88 " fill="none" id="&#25972;&#25913;&#23457;&#26680;&#20013;-to-&#25972;&#25913;&#23436;&#25104;" style="stroke:#181818;stroke-width:1.0;"/><polygon fill="#181818" points="197.69,340.97,202.6675,332.4715,198.2469,336.0011,194.7172,331.5805,197.69,340.97" style="stroke:#181818;stroke-width:1.0;"/><text fill="#000000" font-family="sans-serif" font-size="13" lengthAdjust="spacing" textLength="104" x="203" y="307.0669">&#20004;&#32423;&#23457;&#26680;&#20840;&#37096;&#36890;&#36807;</text></g><!--link ???? to *end*--><g id="link_&#30003;&#35785;&#25104;&#21151;_*end*"><path d="M89.16,391.21 C99.8,409.39 113.95,433.57 122.5,448.18 " fill="none" id="&#30003;&#35785;&#25104;&#21151;-to-*end*" style="stroke:#181818;stroke-width:1.0;"/><polygon fill="#181818" points="125.17,452.74,124.0701,442.9527,122.6418,448.4263,117.1682,446.9979,125.17,452.74" style="stroke:#181818;stroke-width:1.0;"/></g><!--link ???? to *end*--><g id="link_&#25972;&#25913;&#23436;&#25104;_*end*"><path d="M178.26,391.21 C165.44,409.74 148.31,434.52 138.28,449.02 " fill="none" id="&#25972;&#25913;&#23436;&#25104;-to-*end*" style="stroke:#181818;stroke-width:1.0;"/><polygon fill="#181818" points="135.41,453.17,143.829,448.0593,138.262,449.0632,137.2581,443.4961,135.41,453.17" style="stroke:#181818;stroke-width:1.0;"/></g><!--SRC=[YzQALT3LjLDukg_rsTGjpwRiv8ApmEBFfsn-iRuJAFPqtS9d2tOeM2b095zicVzYo-8dktOzwv_mPDUI9xlQ82gvq3KW37dMCU5frtoW2KzsT3xVjHmY_xHrnSlc5IyRPhtOtuvcDOG9KVPanreyLaDTZgu1sP0UeErWgvTWjnh5YI2DqLgnN2YQOO80]--></g></svg>