<?xml version="1.0" encoding="UTF-8" standalone="no"?><svg xmlns="http://www.w3.org/2000/svg" xmlns:xlink="http://www.w3.org/1999/xlink" contentStyleType="text/css" height="478px" preserveAspectRatio="none" style="width:219px;height:478px;background:#FFFFFF;" version="1.1" viewBox="0 0 219 478" width="219px" zoomAndPan="magnify"><defs/><g><ellipse cx="90" cy="16" fill="#222222" rx="10" ry="10" style="stroke:none;stroke-width:1.0;"/><g id="待整改"><rect fill="#F1F1F1" height="50" rx="12.5" ry="12.5" style="stroke:#181818;stroke-width:0.5;" width="50" x="65" y="87"/><line style="stroke:#181818;stroke-width:0.5;" x1="65" x2="115" y1="113.2969" y2="113.2969"/><text fill="#000000" font-family="sans-serif" font-size="14" lengthAdjust="spacing" textLength="24" x="78" y="104.9951">待整改</text></g><g id="申诉待审核"><rect fill="#F1F1F1" height="50" rx="12.5" ry="12.5" style="stroke:#181818;stroke-width:0.5;" width="60" x="7" y="214"/><line style="stroke:#181818;stroke-width:0.5;" x1="7" x2="67" y1="240.2969" y2="240.2969"/><text fill="#000000" font-family="sans-serif" font-size="14" lengthAdjust="spacing" textLength="40" x="17" y="231.9951">申诉待审核</text></g><g id="申诉成功"><rect fill="#F1F1F1" height="50" rx="12.5" ry="12.5" style="stroke:#181818;stroke-width:0.5;" width="52" x="24" y="341"/><line style="stroke:#181818;stroke-width:0.5;" x1="24" x2="76" y1="367.2969" y2="367.2969"/><text fill="#000000" font-family="sans-serif" font-size="14" lengthAdjust="spacing" textLength="32" x="34" y="358.9951">申诉成功</text></g><g id="整改审核中"><rect fill="#F1F1F1" height="50" rx="12.5" ry="12.5" style="stroke:#181818;stroke-width:0.5;" width="60" x="120" y="214"/><line style="stroke:#181818;stroke-width:0.5;" x1="120" x2="180" y1="240.2969" y2="240.2969"/><text fill="#000000" font-family="sans-serif" font-size="14" lengthAdjust="spacing" textLength="40" x="130" y="231.9951">整改审核中</text></g><g id="整改完成"><rect fill="#F1F1F1" height="50" rx="12.5" ry="12.5" style="stroke:#181818;stroke-width:0.5;" width="52" x="116" y="341"/><line style="stroke:#181818;stroke-width:0.5;" x1="116" x2="168" y1="367.2969" y2="367.2969"/><text fill="#000000" font-family="sans-serif" font-size="14" lengthAdjust="spacing" textLength="32" x="126" y="358.9951">整改完成</text></g><ellipse cx="93" cy="462" fill="none" rx="10" ry="10" style="stroke:#222222;stroke-width:1.0;"/><ellipse cx="93.5" cy="462.5" fill="#222222" rx="6" ry="6" style="stroke:none;stroke-width:1.0;"/><!--MD5=[f5705775967f3805ade76cbec89e54b0]
link *start to 待整改--><g id="link_*start_待整改"><path d="M90,26.01 C90,38.7 90,62.41 90,81.57 " fill="none" id="*start-to-待整改" style="stroke:#181818;stroke-width:1.0;"/><polygon fill="#181818" points="90,86.84,94,77.84,90,81.84,86,77.84,90,86.84" style="stroke:#181818;stroke-width:1.0;"/></g><!--MD5=[199bec249604f5ad873098acd2f12f3a]
link 待整改 to 申诉待审核--><g id="link_待整改_申诉待审核"><path d="M64.86,126.7 C50.6,135.99 34.03,149.73 26,167 C20.01,179.88 21.53,195.35 25.06,208.56 " fill="none" id="待整改-to-申诉待审核" style="stroke:#181818;stroke-width:1.0;"/><polygon fill="#181818" points="26.56,213.69,27.88,203.93,25.16,208.89,20.2,206.17,26.56,213.69" style="stroke:#181818;stroke-width:1.0;"/><text fill="#000000" font-family="sans-serif" font-size="13" lengthAdjust="spacing" textLength="80" x="27" y="180.0669">整改负责人提交了申诉</text></g><!--MD5=[7a001b202cecf64a9a0228c9fb439704]
link 申诉待审核 to 申诉成功--><g id="link_申诉待审核_申诉成功"><path d="M39.51,264.1 C41.64,284.59 44.7,314.08 46.97,335.88 " fill="none" id="申诉待审核-to-申诉成功" style="stroke:#181818;stroke-width:1.0;"/><polygon fill="#181818" points="47.5,340.97,50.5527,331.6062,46.9855,335.9965,42.5951,332.4294,47.5,340.97" style="stroke:#181818;stroke-width:1.0;"/><text fill="#000000" font-family="sans-serif" font-size="13" lengthAdjust="spacing" textLength="64" x="46" y="307.0669">三级审核全部通过</text></g><!--MD5=[32f43fc18795fa4c9e5456e90c1a858c]
link 待整改 to 整改审核中--><g id="link_待整改_整改审核中"><path d="M101.57,137.1 C111.49,157.77 125.8,187.57 136.29,209.43 " fill="none" id="待整改-to-整改审核中" style="stroke:#181818;stroke-width:1.0;"/><polygon fill="#181818" points="138.47,213.97,138.1866,204.1252,136.3087,209.4613,130.9726,207.5833,138.47,213.97" style="stroke:#181818;stroke-width:1.0;"/><text fill="#000000" font-family="sans-serif" font-size="13" lengthAdjust="spacing" textLength="80" x="124" y="180.0669">整改负责人提交了整改</text></g><!--MD5=[1fa5a04a0e29eafbf4579481fe7eb637]
link 整改审核中 to 整改完成--><g id="link_整改审核中_整改完成"><path d="M148.46,264.1 C147.15,284.59 145.26,314.08 143.86,335.88 " fill="none" id="整改审核中-to-整改完成" style="stroke:#181818;stroke-width:1.0;"/><polygon fill="#181818" points="143.54,340.97,148.0983,332.2395,143.8546,335.9799,140.1141,331.7362,143.54,340.97" style="stroke:#181818;stroke-width:1.0;"/><text fill="#000000" font-family="sans-serif" font-size="13" lengthAdjust="spacing" textLength="64" x="147" y="307.0669">两级审核全部通过</text></g><!--MD5=[09c3a2aa5517cc3994ac5fce695c467d]
link 申诉成功 to *end--><g id="link_申诉成功_*end"><path d="M61.07,391.21 C69.39,409.39 80.45,433.57 87.13,448.18 " fill="none" id="申诉成功-to-*end" style="stroke:#181818;stroke-width:1.0;"/><polygon fill="#181818" points="89.22,452.74,89.1,442.8919,87.1338,448.196,81.8296,446.2298,89.22,452.74" style="stroke:#181818;stroke-width:1.0;"/></g><!--MD5=[fb3e94a43fde8774729bf7b43570945f]
link 整改完成 to *end--><g id="link_整改完成_*end"><path d="M129.38,391.21 C119.9,409.39 107.3,433.57 99.69,448.18 " fill="none" id="整改完成-to-*end" style="stroke:#181818;stroke-width:1.0;"/><polygon fill="#181818" points="97.31,452.74,105.0079,446.5965,99.6145,448.3027,97.9083,442.9093,97.31,452.74" style="stroke:#181818;stroke-width:1.0;"/></g><!--MD5=[da75e90d41cd1a755d922eb8dc448d2e]
@startuml stateissue

[*] - -> 待整改
待整改 - -> 申诉待审核 : 整改负责人提交了申诉
申诉待审核 - -> 申诉成功 : 三级审核全部通过
待整改 - -> 整改审核中 : 整改负责人提交了整改
整改审核中 - -> 整改完成 : 两级审核全部通过
申诉成功 - -> [*]
整改完成 - -> [*]

@enduml

PlantUML version 1.2022.7(Tue Aug 23 01:01:30 CST 2022)
(GPL source distribution)
Java Runtime: OpenJDK Runtime Environment
JVM: OpenJDK 64-Bit Server VM
Default Encoding: UTF-8
Language: en
Country: null
--></g></svg>